# Blender v2.79 (sub 0) OBJ File: 'node_highlight.blend'
# www.blender.org
o Torus
v 1.832485 -0.163388 2.949482
v 1.637485 -0.050805 2.949482
v 1.637485 -0.275972 2.949482
v 1.737199 -0.163388 2.409091
v 1.553959 -0.050805 2.475785
v 1.553959 -0.275972 2.475785
v 1.462835 -0.163388 1.933878
v 1.313456 -0.050805 2.059222
v 1.313456 -0.275972 2.059222
v 1.042485 -0.163388 1.581162
v 0.944985 -0.050805 1.750037
v 0.944985 -0.275972 1.750037
v 0.526849 -0.163388 1.393486
v 0.492988 -0.050805 1.585524
v 0.492988 -0.275972 1.585524
v -0.021879 -0.163388 1.393486
v 0.011982 -0.050805 1.585524
v 0.011982 -0.275972 1.585524
v -0.537515 -0.163388 1.581162
v -0.440015 -0.050805 1.750037
v -0.440015 -0.275972 1.750037
v -0.957865 -0.163388 1.933878
v -0.808486 -0.050805 2.059221
v -0.808486 -0.275972 2.059221
v -1.232229 -0.163388 2.409090
v -1.048989 -0.050805 2.475784
v -1.048989 -0.275972 2.475784
v -1.327515 -0.163388 2.949482
v -1.132515 -0.050805 2.949482
v -1.132515 -0.275972 2.949482
v -1.232230 -0.163388 3.489874
v -1.048990 -0.050805 3.423180
v -1.048990 -0.275972 3.423180
v -0.957866 -0.163388 3.965087
v -0.808487 -0.050805 3.839743
v -0.808487 -0.275972 3.839743
v -0.537515 -0.163388 4.317803
v -0.440015 -0.050805 4.148928
v -0.440015 -0.275972 4.148928
v -0.021879 -0.163388 4.505479
v 0.011982 -0.050805 4.313441
v 0.011982 -0.275972 4.313441
v 0.526849 -0.163388 4.505479
v 0.492988 -0.050805 4.313441
v 0.492988 -0.275972 4.313441
v 1.042485 -0.163388 4.317802
v 0.944985 -0.050805 4.148928
v 0.944985 -0.275972 4.148928
v 1.462835 -0.163388 3.965087
v 1.313456 -0.050805 3.839743
v 1.313456 -0.275972 3.839743
v 1.737199 -0.163388 3.489875
v 1.553959 -0.050805 3.423181
v 1.553959 -0.275972 3.423181
vt 1.000000 0.000000
vt 0.000000 1.000000
vt 0.000000 0.000000
vt 1.000000 0.000000
vt 0.000000 1.000000
vt 0.000000 0.000000
vt 1.000000 0.000000
vt 0.000000 1.000000
vt 0.000000 0.000000
vt 0.000000 0.000000
vt 1.000000 1.000000
vt 0.000000 1.000000
vt 1.000000 0.000000
vt 0.000000 1.000000
vt 0.000000 0.000000
vt 1.000000 0.000000
vt 0.000000 1.000000
vt 0.000000 0.000000
vt 1.000000 0.000000
vt 0.000000 1.000000
vt 0.000000 0.000000
vt 1.000000 0.000000
vt 0.000000 1.000000
vt 0.000000 0.000000
vt 1.000000 0.000000
vt 0.000000 1.000000
vt 0.000000 0.000000
vt 1.000000 0.000000
vt 0.000000 1.000000
vt 0.000000 0.000000
vt 1.000000 0.000000
vt 0.000000 1.000000
vt 0.000000 0.000000
vt 1.000000 0.000000
vt 0.000000 1.000000
vt 0.000000 0.000000
vt 1.000000 0.000000
vt 0.000000 1.000000
vt 0.000000 0.000000
vt 1.000000 0.000000
vt 0.000000 1.000000
vt 0.000000 0.000000
vt 1.000000 0.000000
vt 0.000000 1.000000
vt 0.000000 0.000000
vt 1.000000 0.000000
vt 0.000000 1.000000
vt 0.000000 0.000000
vt 1.000000 0.000000
vt 0.000000 1.000000
vt 0.000000 0.000000
vt 1.000000 0.000000
vt 0.000000 1.000000
vt 0.000000 0.000000
vt 1.000000 0.000000
vt 0.000000 1.000000
vt 0.000000 0.000000
vt 1.000000 0.000000
vt 0.000000 1.000000
vt 0.000000 0.000000
vt 1.000000 0.000000
vt 0.000000 1.000000
vt 0.000000 0.000000
vt 1.000000 0.000000
vt 0.000000 1.000000
vt 0.000000 0.000000
vt 1.000000 0.000000
vt 0.000000 1.000000
vt 0.000000 0.000000
vt 0.000000 0.000000
vt 1.000000 1.000000
vt 0.000000 1.000000
vt 1.000000 0.000000
vt 0.000000 1.000000
vt 0.000000 0.000000
vt 1.000000 0.000000
vt 0.000000 1.000000
vt 0.000000 0.000000
vt 1.000000 0.000000
vt 0.000000 1.000000
vt 0.000000 0.000000
vt 1.000000 0.000000
vt 0.000000 1.000000
vt 0.000000 0.000000
vt 1.000000 0.000000
vt 0.000000 1.000000
vt 0.000000 0.000000
vt 1.000000 0.000000
vt 0.000000 1.000000
vt 0.000000 0.000000
vt 1.000000 0.000000
vt 0.000000 1.000000
vt 0.000000 0.000000
vt 1.000000 0.000000
vt 0.000000 1.000000
vt 0.000000 0.000000
vt 1.000000 0.000000
vt 0.000000 1.000000
vt 0.000000 0.000000
vt 1.000000 0.000000
vt 0.000000 1.000000
vt 0.000000 0.000000
vt 1.000000 0.000000
vt 0.000000 1.000000
vt 0.000000 0.000000
vt 1.000000 0.000000
vt 0.000000 1.000000
vt 0.000000 0.000000
vt 1.000000 0.000000
vt 0.000000 1.000000
vt 0.000000 0.000000
vt 1.000000 0.000000
vt 0.000000 1.000000
vt 0.000000 0.000000
vt 1.000000 0.000000
vt 0.000000 1.000000
vt 0.000000 0.000000
vt 1.000000 0.000000
vt 0.000000 1.000000
vt 0.000000 0.000000
vt 1.000000 0.000000
vt 0.000000 1.000000
vt 0.000000 0.000000
vt 1.000000 0.000000
vt 0.000000 1.000000
vt 0.000000 0.000000
vt 1.000000 0.000000
vt 0.000000 1.000000
vt 0.000000 0.000000
vt 1.000000 0.000000
vt 0.000000 1.000000
vt 0.000000 0.000000
vt 1.000000 0.000000
vt 0.000000 1.000000
vt 0.000000 0.000000
vt 1.000000 0.000000
vt 0.000000 1.000000
vt 0.000000 0.000000
vt 1.000000 0.000000
vt 0.000000 1.000000
vt 0.000000 0.000000
vt 1.000000 0.000000
vt 0.000000 1.000000
vt 0.000000 0.000000
vt 1.000000 0.000000
vt 0.000000 1.000000
vt 0.000000 0.000000
vt 1.000000 0.000000
vt 0.000000 1.000000
vt 0.000000 0.000000
vt 0.000000 0.000000
vt 1.000000 1.000000
vt 0.000000 1.000000
vt 0.000000 0.000000
vt 1.000000 1.000000
vt 0.000000 1.000000
vt 1.000000 0.000000
vt 0.000000 1.000000
vt 0.000000 0.000000
vt 1.000000 0.000000
vt 0.000000 1.000000
vt 0.000000 0.000000
vt 1.000000 1.000000
vt 1.000000 1.000000
vt 1.000000 1.000000
vt 1.000000 0.000000
vt 1.000000 1.000000
vt 1.000000 1.000000
vt 1.000000 1.000000
vt 1.000000 1.000000
vt 1.000000 1.000000
vt 1.000000 1.000000
vt 1.000000 1.000000
vt 1.000000 1.000000
vt 1.000000 1.000000
vt 1.000000 1.000000
vt 1.000000 1.000000
vt 1.000000 1.000000
vt 1.000000 1.000000
vt 1.000000 1.000000
vt 1.000000 1.000000
vt 1.000000 1.000000
vt 1.000000 1.000000
vt 1.000000 1.000000
vt 1.000000 1.000000
vt 1.000000 0.000000
vt 1.000000 1.000000
vt 1.000000 1.000000
vt 1.000000 1.000000
vt 1.000000 1.000000
vt 1.000000 1.000000
vt 1.000000 1.000000
vt 1.000000 1.000000
vt 1.000000 1.000000
vt 1.000000 1.000000
vt 1.000000 1.000000
vt 1.000000 1.000000
vt 1.000000 1.000000
vt 1.000000 1.000000
vt 1.000000 1.000000
vt 1.000000 1.000000
vt 1.000000 1.000000
vt 1.000000 1.000000
vt 1.000000 1.000000
vt 1.000000 1.000000
vt 1.000000 1.000000
vt 1.000000 1.000000
vt 1.000000 1.000000
vt 1.000000 1.000000
vt 1.000000 1.000000
vt 1.000000 1.000000
vt 1.000000 1.000000
vt 1.000000 0.000000
vt 1.000000 0.000000
vt 1.000000 1.000000
vt 1.000000 1.000000
vn 0.4981 0.8627 -0.0878
vn -0.9848 0.0000 0.1736
vn 0.4981 -0.8627 -0.0878
vn 0.4380 0.8627 -0.2529
vn -0.8660 0.0000 0.5000
vn 0.4380 -0.8627 -0.2529
vn 0.3251 0.8627 -0.3874
vn -0.6428 0.0000 0.7660
vn 0.3251 -0.8627 -0.3874
vn 0.1730 0.8627 -0.4753
vn -0.3420 0.0000 0.9397
vn 0.1730 -0.8627 -0.4753
vn 0.0000 0.8627 -0.5058
vn -0.0000 0.0000 1.0000
vn 0.0000 -0.8627 -0.5058
vn -0.1730 0.8627 -0.4753
vn 0.3420 0.0000 0.9397
vn -0.1730 -0.8627 -0.4753
vn -0.3251 0.8627 -0.3874
vn 0.6428 0.0000 0.7660
vn -0.3251 -0.8627 -0.3874
vn -0.4380 0.8627 -0.2529
vn 0.8660 0.0000 0.5000
vn -0.4380 -0.8627 -0.2529
vn -0.4981 0.8627 -0.0878
vn 0.9848 0.0000 0.1736
vn -0.4981 -0.8627 -0.0878
vn -0.4981 0.8627 0.0878
vn 0.9848 0.0000 -0.1736
vn -0.4981 -0.8627 0.0878
vn -0.4380 0.8627 0.2529
vn 0.8660 0.0000 -0.5000
vn -0.4380 -0.8627 0.2529
vn -0.3251 0.8627 0.3874
vn 0.6428 0.0000 -0.7660
vn -0.3251 -0.8627 0.3874
vn -0.1730 0.8627 0.4753
vn 0.3420 0.0000 -0.9397
vn -0.1730 -0.8627 0.4753
vn 0.0000 0.8627 0.5058
vn 0.0000 0.0000 -1.0000
vn 0.0000 -0.8627 0.5058
vn 0.1730 0.8627 0.4753
vn -0.3420 0.0000 -0.9397
vn 0.1730 -0.8627 0.4753
vn 0.3251 0.8627 0.3874
vn -0.6428 0.0000 -0.7660
vn 0.3251 -0.8627 0.3874
vn 0.4380 0.8627 0.2529
vn -0.8660 0.0000 -0.5000
vn 0.4380 -0.8627 0.2529
vn 0.4981 0.8627 0.0878
vn -0.9848 0.0000 -0.1736
vn 0.4981 -0.8627 0.0878
s off
f 4/1/1 2/2/1 1/3/1
f 5/4/2 3/5/2 2/6/2
f 6/7/3 1/8/3 3/9/3
f 4/10/4 8/11/4 5/12/4
f 8/13/5 6/14/5 5/15/5
f 9/16/6 4/17/6 6/18/6
f 10/19/7 8/20/7 7/21/7
f 11/22/8 9/23/8 8/24/8
f 12/25/9 7/26/9 9/27/9
f 13/28/10 11/29/10 10/30/10
f 14/31/11 12/32/11 11/33/11
f 15/34/12 10/35/12 12/36/12
f 16/37/13 14/38/13 13/39/13
f 17/40/14 15/41/14 14/42/14
f 18/43/15 13/44/15 15/45/15
f 19/46/16 17/47/16 16/48/16
f 20/49/17 18/50/17 17/51/17
f 21/52/18 16/53/18 18/54/18
f 22/55/19 20/56/19 19/57/19
f 23/58/20 21/59/20 20/60/20
f 24/61/21 19/62/21 21/63/21
f 25/64/22 23/65/22 22/66/22
f 26/67/23 24/68/23 23/69/23
f 24/70/24 25/71/24 22/72/24
f 28/73/25 26/74/25 25/75/25
f 29/76/26 27/77/26 26/78/26
f 30/79/27 25/80/27 27/81/27
f 31/82/28 29/83/28 28/84/28
f 32/85/29 30/86/29 29/87/29
f 33/88/30 28/89/30 30/90/30
f 34/91/31 32/92/31 31/93/31
f 35/94/32 33/95/32 32/96/32
f 36/97/33 31/98/33 33/99/33
f 37/100/34 35/101/34 34/102/34
f 38/103/35 36/104/35 35/105/35
f 39/106/36 34/107/36 36/108/36
f 40/109/37 38/110/37 37/111/37
f 41/112/38 39/113/38 38/114/38
f 42/115/39 37/116/39 39/117/39
f 43/118/40 41/119/40 40/120/40
f 44/121/41 42/122/41 41/123/41
f 45/124/42 40/125/42 42/126/42
f 46/127/43 44/128/43 43/129/43
f 47/130/44 45/131/44 44/132/44
f 48/133/45 43/134/45 45/135/45
f 49/136/46 47/137/46 46/138/46
f 50/139/47 48/140/47 47/141/47
f 51/142/48 46/143/48 48/144/48
f 52/145/49 50/146/49 49/147/49
f 53/148/50 51/149/50 50/150/50
f 51/151/51 52/152/51 49/153/51
f 52/154/52 2/155/52 53/156/52
f 2/157/53 54/158/53 53/159/53
f 3/160/54 52/161/54 54/162/54
f 4/1/1 5/163/1 2/2/1
f 5/4/2 6/164/2 3/5/2
f 6/7/3 4/165/3 1/8/3
f 4/10/4 7/166/4 8/11/4
f 8/13/5 9/167/5 6/14/5
f 9/16/6 7/168/6 4/17/6
f 10/19/7 11/169/7 8/20/7
f 11/22/8 12/170/8 9/23/8
f 12/25/9 10/171/9 7/26/9
f 13/28/10 14/172/10 11/29/10
f 14/31/11 15/173/11 12/32/11
f 15/34/12 13/174/12 10/35/12
f 16/37/13 17/175/13 14/38/13
f 17/40/14 18/176/14 15/41/14
f 18/43/15 16/177/15 13/44/15
f 19/46/16 20/178/16 17/47/16
f 20/49/17 21/179/17 18/50/17
f 21/52/18 19/180/18 16/53/18
f 22/55/19 23/181/19 20/56/19
f 23/58/20 24/182/20 21/59/20
f 24/61/21 22/183/21 19/62/21
f 25/64/22 26/184/22 23/65/22
f 26/67/23 27/185/23 24/68/23
f 24/70/24 27/186/24 25/71/24
f 28/73/25 29/187/25 26/74/25
f 29/76/26 30/188/26 27/77/26
f 30/79/27 28/189/27 25/80/27
f 31/82/28 32/190/28 29/83/28
f 32/85/29 33/191/29 30/86/29
f 33/88/30 31/192/30 28/89/30
f 34/91/31 35/193/31 32/92/31
f 35/94/32 36/194/32 33/95/32
f 36/97/33 34/195/33 31/98/33
f 37/100/34 38/196/34 35/101/34
f 38/103/35 39/197/35 36/104/35
f 39/106/36 37/198/36 34/107/36
f 40/109/37 41/199/37 38/110/37
f 41/112/38 42/200/38 39/113/38
f 42/115/39 40/201/39 37/116/39
f 43/118/40 44/202/40 41/119/40
f 44/121/41 45/203/41 42/122/41
f 45/124/42 43/204/42 40/125/42
f 46/127/43 47/205/43 44/128/43
f 47/130/44 48/206/44 45/131/44
f 48/133/45 46/207/45 43/134/45
f 49/136/46 50/208/46 47/137/46
f 50/139/47 51/209/47 48/140/47
f 51/142/48 49/210/48 46/143/48
f 52/145/49 53/211/49 50/146/49
f 53/148/50 54/212/50 51/149/50
f 51/151/51 54/213/51 52/152/51
f 52/154/52 1/214/52 2/155/52
f 2/157/53 3/215/53 54/158/53
f 3/160/54 1/216/54 52/161/54
