# Blender v2.92.0 OBJ File: 'board.blend'
# www.blender.org
o Cube_Cube.001
v -3.674823 1.409508 3.699630
v -3.674823 1.612745 3.699630
v -3.674823 1.409508 -4.644410
v -3.674823 1.612745 -4.644410
v 4.669216 1.409508 3.699630
v 4.669216 1.612745 3.699630
v 4.669216 1.409508 -4.644410
v 4.669216 1.612745 -4.644410
vt 0.039516 0.991843
vt 0.040876 0.016014
vt 0.039516 0.018474
vt 0.036174 0.991843
vt 0.045578 0.016014
vt 0.036174 0.018474
vt 0.039516 0.991843
vt 0.045996 0.016521
vt 0.039516 0.018474
vt 0.036174 0.991843
vt 0.047730 0.014568
vt 0.036174 0.018474
vt 1.003464 1.007552
vt 1.004338 -0.000495
vt 1.004338 1.002630
vt 0.001213 1.002630
vt 1.004338 -0.000495
vt 1.004338 1.002630
vt 0.045797 0.989383
vt 0.040657 0.989383
vt 0.045996 0.989890
vt 0.047730 0.987937
vt 1.003464 0.004426
vt 0.001213 -0.000495
vn -1.0000 0.0000 0.0000
vn 0.0000 0.0000 -1.0000
vn 1.0000 0.0000 0.0000
vn 0.0000 0.0000 1.0000
vn 0.0000 -1.0000 0.0000
vn 0.0000 1.0000 0.0000
s off
f 2/1/1 3/2/1 1/3/1
f 4/4/2 7/5/2 3/6/2
f 8/7/3 5/8/3 7/9/3
f 6/10/4 1/11/4 5/12/4
f 7/13/5 1/14/5 3/15/5
f 4/16/6 6/17/6 8/18/6
f 2/1/1 4/19/1 3/2/1
f 4/4/2 8/20/2 7/5/2
f 8/7/3 6/21/3 5/8/3
f 6/10/4 2/22/4 1/11/4
f 7/13/5 5/23/5 1/14/5
f 4/16/6 2/24/6 6/17/6
