# Blender v2.92.0 OBJ File: 'board.blend'
# www.blender.org
o Board_export_Cube
v -0.130000 -0.003000 0.130000
v -0.130000 0.003000 0.130000
v -0.130000 -0.003000 -0.130000
v -0.130000 0.003000 -0.130000
v 0.130000 -0.003000 0.130000
v 0.130000 0.003000 0.130000
v 0.130000 -0.003000 -0.130000
v 0.130000 0.003000 -0.130000
vt 0.733664 0.641394
vt 0.703597 0.618247
vt 0.735337 0.617291
vt 0.485390 0.603284
vt 0.463078 0.577133
vt 0.485395 0.579255
vt 0.535637 0.228330
vt 0.557190 0.832262
vt 0.532916 0.832099
vt 0.493129 0.856955
vt 0.989645 0.832320
vt 0.989645 0.856955
vt 0.995040 0.021887
vt 0.506262 0.510665
vt 0.506262 0.021887
vt 0.008552 0.510979
vt 0.499260 0.020271
vt 0.499260 0.510979
vt 0.701924 0.642350
vt 0.463073 0.601162
vt 0.559910 0.228492
vt 0.493129 0.832320
vt 0.995040 0.510665
vt 0.008552 0.020271
vn -1.0000 0.0000 0.0000
vn 0.0000 0.0000 -1.0000
vn 1.0000 0.0000 0.0000
vn 0.0000 0.0000 1.0000
vn 0.0000 -1.0000 0.0000
vn 0.0000 1.0000 0.0000
s off
f 2/1/1 3/2/1 1/3/1
f 4/4/2 7/5/2 3/6/2
f 8/7/3 5/8/3 7/9/3
f 6/10/4 1/11/4 5/12/4
f 7/13/5 1/14/5 3/15/5
f 4/16/6 6/17/6 8/18/6
f 2/1/1 4/19/1 3/2/1
f 4/4/2 8/20/2 7/5/2
f 8/7/3 6/21/3 5/8/3
f 6/10/4 2/22/4 1/11/4
f 7/13/5 5/23/5 1/14/5
f 4/16/6 2/24/6 6/17/6
o White_Piece_export_Cylinder
v -0.000000 -0.003719 -0.009000
v -0.000000 0.003719 -0.009000
v 0.001756 -0.003719 -0.008827
v 0.001756 0.003719 -0.008827
v 0.003444 -0.003719 -0.008315
v 0.003444 0.003719 -0.008315
v 0.005000 -0.003719 -0.007483
v 0.005000 0.003719 -0.007483
v 0.006364 -0.003719 -0.006364
v 0.006364 0.003719 -0.006364
v 0.007483 -0.003719 -0.005000
v 0.007483 0.003719 -0.005000
v 0.008315 -0.003719 -0.003444
v 0.008315 0.003719 -0.003444
v 0.008827 -0.003719 -0.001756
v 0.008827 0.003719 -0.001756
v 0.009000 -0.003719 0.000000
v 0.009000 0.003719 0.000000
v 0.008827 -0.003719 0.001756
v 0.008827 0.003719 0.001756
v 0.008315 -0.003719 0.003444
v 0.008315 0.003719 0.003444
v 0.007483 -0.003719 0.005000
v 0.007483 0.003719 0.005000
v 0.006364 -0.003719 0.006364
v 0.006364 0.003719 0.006364
v 0.005000 -0.003719 0.007483
v 0.005000 0.003719 0.007483
v 0.003444 -0.003719 0.008315
v 0.003444 0.003719 0.008315
v 0.001756 -0.003719 0.008827
v 0.001756 0.003719 0.008827
v -0.000000 -0.003719 0.009000
v -0.000000 0.003719 0.009000
v -0.001756 -0.003719 0.008827
v -0.001756 0.003719 0.008827
v -0.003444 -0.003719 0.008315
v -0.003444 0.003719 0.008315
v -0.005000 -0.003719 0.007483
v -0.005000 0.003719 0.007483
v -0.006364 -0.003719 0.006364
v -0.006364 0.003719 0.006364
v -0.007483 -0.003719 0.005000
v -0.007483 0.003719 0.005000
v -0.008315 -0.003719 0.003444
v -0.008315 0.003719 0.003444
v -0.008827 -0.003719 0.001756
v -0.008827 0.003719 0.001756
v -0.009000 -0.003719 -0.000000
v -0.009000 0.003719 -0.000000
v -0.008827 -0.003719 -0.001756
v -0.008827 0.003719 -0.001756
v -0.008315 -0.003719 -0.003444
v -0.008315 0.003719 -0.003444
v -0.007483 -0.003719 -0.005000
v -0.007483 0.003719 -0.005000
v -0.006364 -0.003719 -0.006364
v -0.006364 0.003719 -0.006364
v -0.005000 -0.003719 -0.007483
v -0.005000 0.003719 -0.007483
v -0.003444 -0.003719 -0.008315
v -0.003444 0.003719 -0.008315
v -0.001756 -0.003719 -0.008827
v -0.001756 0.003719 -0.008827
vt 0.999680 1.000000
vt 0.968750 0.500000
vt 0.999680 0.500000
vt 0.968750 1.000000
vt 0.937500 0.500000
vt 0.937500 1.000000
vt 0.906250 0.500000
vt 0.906250 1.000000
vt 0.875000 0.500000
vt 0.875000 1.000000
vt 0.843750 0.500000
vt 0.843750 1.000000
vt 0.812500 0.500000
vt 0.812500 1.000000
vt 0.781250 0.500000
vt 0.781250 1.000000
vt 0.750000 0.500000
vt 0.750000 1.000000
vt 0.718750 0.500000
vt 0.718750 1.000000
vt 0.687500 0.500000
vt 0.687500 1.000000
vt 0.656250 0.500000
vt 0.656250 1.000000
vt 0.625000 0.500000
vt 0.625000 1.000000
vt 0.593750 0.500000
vt 0.593750 1.000000
vt 0.562500 0.500000
vt 0.562500 1.000000
vt 0.531250 0.500000
vt 0.531250 1.000000
vt 0.500000 0.500000
vt 0.500000 1.000000
vt 0.468750 0.500000
vt 0.468750 1.000000
vt 0.437500 0.500000
vt 0.437500 1.000000
vt 0.406250 0.500000
vt 0.406250 1.000000
vt 0.375000 0.500000
vt 0.375000 1.000000
vt 0.343750 0.500000
vt 0.343750 1.000000
vt 0.312500 0.500000
vt 0.312500 1.000000
vt 0.281250 0.500000
vt 0.281250 1.000000
vt 0.250000 0.500000
vt 0.250000 1.000000
vt 0.218750 0.500000
vt 0.218750 1.000000
vt 0.187500 0.500000
vt 0.187500 1.000000
vt 0.156250 0.500000
vt 0.156250 1.000000
vt 0.125000 0.500000
vt 0.125000 1.000000
vt 0.093750 0.500000
vt 0.093750 1.000000
vt 0.062500 0.500000
vt 0.341844 0.471731
vt 0.028269 0.341844
vt 0.158156 0.028269
vt 0.062500 1.000000
vt 0.031250 0.500000
vt 0.031250 1.000000
vt 0.003691 0.500000
vt 0.550447 0.383337
vt 0.703179 0.485389
vt 0.796822 0.014612
vt 0.296822 0.485388
vt 0.250000 0.490000
vt 0.203179 0.485389
vt 0.158156 0.471731
vt 0.116663 0.449553
vt 0.080295 0.419706
vt 0.050447 0.383337
vt 0.014612 0.296822
vt 0.028269 0.158156
vt 0.010000 0.250000
vt 0.014611 0.203179
vt 0.050447 0.116663
vt 0.080294 0.080294
vt 0.116663 0.050447
vt 0.203178 0.014612
vt 0.250000 0.010000
vt 0.296822 0.014612
vt 0.341844 0.028269
vt 0.383337 0.050447
vt 0.419706 0.080294
vt 0.449553 0.116663
vt 0.471731 0.158156
vt 0.485388 0.203178
vt 0.490000 0.250000
vt 0.485388 0.296822
vt 0.471731 0.341844
vt 0.449553 0.383337
vt 0.419706 0.419706
vt 0.383337 0.449553
vt 0.003691 1.000000
vt 0.750000 0.490000
vt 0.883337 0.449553
vt 0.796822 0.485388
vt 0.841844 0.471731
vt 0.919706 0.419706
vt 0.985388 0.296822
vt 0.949553 0.383337
vt 0.971731 0.341844
vt 0.990000 0.250000
vt 0.985388 0.203178
vt 0.971731 0.158156
vt 0.949553 0.116663
vt 0.919706 0.080294
vt 0.883337 0.050447
vt 0.841844 0.028269
vt 0.750000 0.010000
vt 0.703178 0.014612
vt 0.658156 0.028269
vt 0.616663 0.050447
vt 0.580294 0.080294
vt 0.550447 0.116663
vt 0.528269 0.158156
vt 0.514611 0.203179
vt 0.510000 0.250000
vt 0.514612 0.296822
vt 0.528269 0.341844
vt 0.580295 0.419706
vt 0.616663 0.449553
vt 0.658156 0.471731
vn 0.0980 0.0000 -0.9952
vn 0.2903 0.0000 -0.9569
vn 0.4714 0.0000 -0.8819
vn 0.6344 0.0000 -0.7730
vn 0.7730 0.0000 -0.6344
vn 0.8819 0.0000 -0.4714
vn 0.9569 0.0000 -0.2903
vn 0.9952 0.0000 -0.0980
vn 0.9952 0.0000 0.0980
vn 0.9569 0.0000 0.2903
vn 0.8819 0.0000 0.4714
vn 0.7730 0.0000 0.6344
vn 0.6344 0.0000 0.7730
vn 0.4714 0.0000 0.8819
vn 0.2903 0.0000 0.9569
vn 0.0980 0.0000 0.9952
vn -0.0980 0.0000 0.9952
vn -0.2903 0.0000 0.9569
vn -0.4714 0.0000 0.8819
vn -0.6344 0.0000 0.7730
vn -0.7730 0.0000 0.6344
vn -0.8819 0.0000 0.4714
vn -0.9569 0.0000 0.2903
vn -0.9952 0.0000 0.0980
vn -0.9952 0.0000 -0.0980
vn -0.9569 0.0000 -0.2903
vn -0.8819 0.0000 -0.4714
vn -0.7730 0.0000 -0.6344
vn -0.6344 0.0000 -0.7730
vn -0.4714 0.0000 -0.8819
vn 0.0000 1.0000 0.0000
vn -0.2903 0.0000 -0.9569
vn -0.0980 0.0000 -0.9952
vn 0.0000 -1.0000 0.0000
s off
f 10/25/7 11/26/7 9/27/7
f 12/28/8 13/29/8 11/26/8
f 14/30/9 15/31/9 13/29/9
f 16/32/10 17/33/10 15/31/10
f 18/34/11 19/35/11 17/33/11
f 20/36/12 21/37/12 19/35/12
f 22/38/13 23/39/13 21/37/13
f 24/40/14 25/41/14 23/39/14
f 26/42/15 27/43/15 25/41/15
f 28/44/16 29/45/16 27/43/16
f 30/46/17 31/47/17 29/45/17
f 32/48/18 33/49/18 31/47/18
f 34/50/19 35/51/19 33/49/19
f 36/52/20 37/53/20 35/51/20
f 38/54/21 39/55/21 37/53/21
f 40/56/22 41/57/22 39/55/22
f 42/58/23 43/59/23 41/57/23
f 44/60/24 45/61/24 43/59/24
f 46/62/25 47/63/25 45/61/25
f 48/64/26 49/65/26 47/63/26
f 50/66/27 51/67/27 49/65/27
f 52/68/28 53/69/28 51/67/28
f 54/70/29 55/71/29 53/69/29
f 56/72/30 57/73/30 55/71/30
f 58/74/31 59/75/31 57/73/31
f 60/76/32 61/77/32 59/75/32
f 62/78/33 63/79/33 61/77/33
f 64/80/34 65/81/34 63/79/34
f 66/82/35 67/83/35 65/81/35
f 68/84/36 69/85/36 67/83/36
f 14/86/37 62/87/37 46/88/37
f 70/89/38 71/90/38 69/85/38
f 72/91/39 9/92/39 71/90/39
f 63/93/40 71/94/40 39/95/40
f 10/25/7 12/28/7 11/26/7
f 12/28/8 14/30/8 13/29/8
f 14/30/9 16/32/9 15/31/9
f 16/32/10 18/34/10 17/33/10
f 18/34/11 20/36/11 19/35/11
f 20/36/12 22/38/12 21/37/12
f 22/38/13 24/40/13 23/39/13
f 24/40/14 26/42/14 25/41/14
f 26/42/15 28/44/15 27/43/15
f 28/44/16 30/46/16 29/45/16
f 30/46/17 32/48/17 31/47/17
f 32/48/18 34/50/18 33/49/18
f 34/50/19 36/52/19 35/51/19
f 36/52/20 38/54/20 37/53/20
f 38/54/21 40/56/21 39/55/21
f 40/56/22 42/58/22 41/57/22
f 42/58/23 44/60/23 43/59/23
f 44/60/24 46/62/24 45/61/24
f 46/62/25 48/64/25 47/63/25
f 48/64/26 50/66/26 49/65/26
f 50/66/27 52/68/27 51/67/27
f 52/68/28 54/70/28 53/69/28
f 54/70/29 56/72/29 55/71/29
f 56/72/30 58/74/30 57/73/30
f 58/74/31 60/76/31 59/75/31
f 60/76/32 62/78/32 61/77/32
f 62/78/33 64/80/33 63/79/33
f 64/80/34 66/82/34 65/81/34
f 66/82/35 68/84/35 67/83/35
f 68/84/36 70/89/36 69/85/36
f 14/86/37 12/96/37 10/97/37
f 10/97/37 72/98/37 70/99/37
f 70/99/37 68/100/37 66/101/37
f 66/101/37 64/102/37 62/87/37
f 62/87/37 60/103/37 54/104/37
f 60/103/37 58/105/37 54/104/37
f 58/105/37 56/106/37 54/104/37
f 54/104/37 52/107/37 50/108/37
f 50/108/37 48/109/37 46/88/37
f 46/88/37 44/110/37 42/111/37
f 42/111/37 40/112/37 46/88/37
f 40/112/37 38/113/37 46/88/37
f 38/113/37 36/114/37 34/115/37
f 34/115/37 32/116/37 30/117/37
f 30/117/37 28/118/37 26/119/37
f 26/119/37 24/120/37 30/117/37
f 24/120/37 22/121/37 30/117/37
f 22/121/37 20/122/37 18/123/37
f 18/123/37 16/124/37 22/121/37
f 16/124/37 14/86/37 22/121/37
f 14/86/37 10/97/37 70/99/37
f 70/99/37 66/101/37 14/86/37
f 66/101/37 62/87/37 14/86/37
f 54/104/37 50/108/37 46/88/37
f 38/113/37 34/115/37 30/117/37
f 62/87/37 54/104/37 46/88/37
f 46/88/37 38/113/37 14/86/37
f 38/113/37 30/117/37 14/86/37
f 30/117/37 22/121/37 14/86/37
f 70/89/38 72/91/38 71/90/38
f 72/91/39 10/125/39 9/92/39
f 71/94/40 9/126/40 15/127/40
f 9/126/40 11/128/40 15/127/40
f 11/128/40 13/129/40 15/127/40
f 15/127/40 17/130/40 23/131/40
f 17/130/40 19/132/40 23/131/40
f 19/132/40 21/133/40 23/131/40
f 23/131/40 25/134/40 27/135/40
f 27/135/40 29/136/40 23/131/40
f 29/136/40 31/137/40 23/131/40
f 31/137/40 33/138/40 35/139/40
f 35/139/40 37/140/40 31/137/40
f 37/140/40 39/95/40 31/137/40
f 39/95/40 41/141/40 43/142/40
f 43/142/40 45/143/40 39/95/40
f 45/143/40 47/144/40 39/95/40
f 47/144/40 49/145/40 51/146/40
f 51/146/40 53/147/40 55/148/40
f 55/148/40 57/149/40 59/150/40
f 59/150/40 61/151/40 63/93/40
f 63/93/40 65/152/40 67/153/40
f 67/153/40 69/154/40 71/94/40
f 47/144/40 51/146/40 39/95/40
f 51/146/40 55/148/40 39/95/40
f 55/148/40 59/150/40 63/93/40
f 63/93/40 67/153/40 71/94/40
f 71/94/40 15/127/40 39/95/40
f 15/127/40 23/131/40 39/95/40
f 23/131/40 31/137/40 39/95/40
f 55/148/40 63/93/40 39/95/40
