# Blender v2.92.0 OBJ File: 'piece.blend'
# www.blender.org
o Piece_Cylinder
v 0.749211 0.796648 -1.497484
v 0.749211 1.738708 -1.497484
v 1.035574 0.796648 -1.469280
v 1.035574 1.738708 -1.469280
v 1.310932 0.796648 -1.385751
v 1.310932 1.738708 -1.385751
v 1.564704 0.796648 -1.250107
v 1.564704 1.738708 -1.250107
v 1.787137 0.796648 -1.067561
v 1.787137 1.738708 -1.067561
v 1.969682 0.796648 -0.845128
v 1.969682 1.738708 -0.845128
v 2.105326 0.796648 -0.591357
v 2.105326 1.738708 -0.591357
v 2.188855 0.796648 -0.315999
v 2.188855 1.738708 -0.315999
v 2.217059 0.796648 -0.029636
v 2.217059 1.738708 -0.029636
v 2.188855 0.796648 0.256727
v 2.188855 1.738708 0.256727
v 2.105326 0.796648 0.532086
v 2.105326 1.738708 0.532086
v 1.969682 0.796648 0.785857
v 1.969682 1.738708 0.785857
v 1.787137 0.796648 1.008290
v 1.787137 1.738708 1.008290
v 1.564704 0.796648 1.190836
v 1.564704 1.738708 1.190836
v 1.310932 0.796648 1.326480
v 1.310932 1.738708 1.326480
v 1.035574 0.796648 1.410009
v 1.035574 1.738708 1.410009
v 0.749210 0.796648 1.438213
v 0.749210 1.738708 1.438213
v 0.462847 0.796648 1.410009
v 0.462847 1.738708 1.410009
v 0.187489 0.796648 1.326479
v 0.187489 1.738708 1.326479
v -0.066283 0.796648 1.190836
v -0.066283 1.738708 1.190836
v -0.288715 0.796648 1.008290
v -0.288715 1.738708 1.008290
v -0.471261 0.796648 0.785857
v -0.471261 1.738708 0.785857
v -0.606905 0.796648 0.532085
v -0.606905 1.738708 0.532085
v -0.690434 0.796648 0.256726
v -0.690434 1.738708 0.256726
v -0.718638 0.796648 -0.029637
v -0.718638 1.738708 -0.029637
v -0.690433 0.796648 -0.316000
v -0.690433 1.738708 -0.316000
v -0.606904 0.796648 -0.591358
v -0.606904 1.738708 -0.591358
v -0.471260 0.796648 -0.845130
v -0.471260 1.738708 -0.845130
v -0.288713 0.796648 -1.067562
v -0.288713 1.738708 -1.067562
v -0.066280 0.796648 -1.250108
v -0.066280 1.738708 -1.250108
v 0.187492 0.796648 -1.385751
v 0.187492 1.738708 -1.385751
v 0.462850 0.796648 -1.469280
v 0.462850 1.738708 -1.469280
vt 0.580773 0.945598
vt 0.615413 0.590489
vt 0.580773 0.590489
vt 0.615413 0.945598
vt 0.648721 0.590489
vt 0.293611 0.945598
vt 0.324308 0.590489
vt 0.293611 0.590489
vt 0.324308 0.945598
vt 0.351214 0.590489
vt 0.578559 0.945598
vt 0.551653 0.590489
vt 0.578559 0.590489
vt 0.551653 0.945598
vt 0.520957 0.590489
vt 0.520957 0.945598
vt 0.487648 0.590489
vt 0.487648 0.945598
vt 0.453009 0.590489
vt 0.453009 0.945598
vt 0.418370 0.590489
vt 0.418370 0.945598
vt 0.385062 0.590489
vt 0.385062 0.945598
vt 0.354365 0.590489
vt 0.354365 0.945598
vt 0.327459 0.590489
vt 0.351214 0.945598
vt 0.324308 0.590489
vt 0.351214 0.590489
vt 0.324308 0.945598
vt 0.293611 0.590489
vt 0.293611 0.945598
vt 0.260303 0.590489
vt 0.615413 0.945598
vt 0.580773 0.590489
vt 0.615413 0.590489
vt 0.580773 0.945598
vt 0.546134 0.590489
vt 0.546134 0.945598
vt 0.512826 0.590489
vt 0.512826 0.945598
vt 0.482129 0.590489
vt 0.482129 0.945598
vt 0.455223 0.590489
vt 0.327459 0.945598
vt 0.354365 0.590489
vt 0.327459 0.590489
vt 0.354365 0.945598
vt 0.385062 0.590489
vt 0.385062 0.945598
vt 0.418370 0.590489
vt 0.418370 0.945598
vt 0.453009 0.590489
vt 0.453009 0.945598
vt 0.487649 0.590489
vt 0.487649 0.945598
vt 0.520957 0.590489
vt 0.520957 0.945598
vt 0.551654 0.590489
vt 0.551654 0.945598
vt 0.578560 0.590489
vt 0.455223 0.945598
vt 0.482129 0.590489
vt 0.455223 0.590489
vt 0.482129 0.945598
vt 0.512826 0.590489
vt 0.416734 0.261061
vt 0.512826 0.029074
vt 0.744813 0.125166
vt 0.512826 0.945598
vt 0.546134 0.590489
vt 0.546134 0.945598
vt 0.754917 0.227752
vt 0.615413 0.018970
vt 0.406630 0.158474
vt 0.648721 0.945598
vt 0.351214 0.945598
vt 0.327459 0.945598
vt 0.260303 0.945598
vt 0.455223 0.945598
vt 0.578560 0.945598
vt 0.648721 0.357152
vt 0.615413 0.367256
vt 0.580773 0.370668
vt 0.546134 0.367256
vt 0.512826 0.357153
vt 0.482129 0.340745
vt 0.455223 0.318664
vt 0.433142 0.291758
vt 0.406630 0.227753
vt 0.403218 0.193113
vt 0.406630 0.158474
vt 0.416734 0.125166
vt 0.433142 0.094469
vt 0.455223 0.067563
vt 0.482129 0.045482
vt 0.546134 0.018970
vt 0.580773 0.015558
vt 0.615413 0.018970
vt 0.648721 0.029074
vt 0.679418 0.045482
vt 0.706324 0.067563
vt 0.728405 0.094469
vt 0.754917 0.158474
vt 0.758328 0.193113
vt 0.754917 0.227752
vt 0.744813 0.261060
vt 0.728405 0.291757
vt 0.706324 0.318663
vt 0.679418 0.340745
vt 0.546134 0.367256
vt 0.580773 0.370668
vt 0.615413 0.367256
vt 0.648721 0.357152
vt 0.679418 0.340745
vt 0.706324 0.318663
vt 0.728405 0.291757
vt 0.744813 0.261060
vt 0.758328 0.193113
vt 0.754917 0.158474
vt 0.744813 0.125166
vt 0.728405 0.094469
vt 0.706324 0.067563
vt 0.679418 0.045482
vt 0.648721 0.029074
vt 0.580773 0.015558
vt 0.546134 0.018970
vt 0.512826 0.029074
vt 0.482129 0.045482
vt 0.455223 0.067563
vt 0.433142 0.094469
vt 0.416734 0.125166
vt 0.403218 0.193113
vt 0.406630 0.227753
vt 0.416734 0.261061
vt 0.433142 0.291758
vt 0.455223 0.318664
vt 0.482129 0.340745
vt 0.512826 0.357153
vn 0.0980 0.0000 -0.9952
vn 0.2903 0.0000 -0.9569
vn 0.4714 0.0000 -0.8819
vn 0.6344 0.0000 -0.7730
vn 0.7730 0.0000 -0.6344
vn 0.8819 0.0000 -0.4714
vn 0.9569 0.0000 -0.2903
vn 0.9952 0.0000 -0.0980
vn 0.9952 0.0000 0.0980
vn 0.9569 0.0000 0.2903
vn 0.8819 0.0000 0.4714
vn 0.7730 0.0000 0.6344
vn 0.6344 0.0000 0.7730
vn 0.4714 0.0000 0.8819
vn 0.2903 0.0000 0.9569
vn 0.0980 0.0000 0.9952
vn -0.0980 0.0000 0.9952
vn -0.2903 0.0000 0.9569
vn -0.4714 0.0000 0.8819
vn -0.6344 0.0000 0.7730
vn -0.7730 0.0000 0.6344
vn -0.8819 0.0000 0.4714
vn -0.9569 0.0000 0.2903
vn -0.9952 0.0000 0.0980
vn -0.9952 0.0000 -0.0980
vn -0.9569 0.0000 -0.2903
vn -0.8819 0.0000 -0.4714
vn -0.7730 0.0000 -0.6344
vn -0.6344 0.0000 -0.7730
vn -0.4714 0.0000 -0.8819
vn 0.0000 1.0000 0.0000
vn -0.2903 0.0000 -0.9569
vn -0.0980 0.0000 -0.9952
vn 0.0000 -1.0000 0.0000
s off
f 2/1/1 3/2/1 1/3/1
f 4/4/2 5/5/2 3/2/2
f 6/6/3 7/7/3 5/8/3
f 8/9/4 9/10/4 7/7/4
f 10/11/5 11/12/5 9/13/5
f 12/14/6 13/15/6 11/12/6
f 14/16/7 15/17/7 13/15/7
f 16/18/8 17/19/8 15/17/8
f 18/20/9 19/21/9 17/19/9
f 20/22/10 21/23/10 19/21/10
f 22/24/11 23/25/11 21/23/11
f 24/26/12 25/27/12 23/25/12
f 26/28/13 27/29/13 25/30/13
f 28/31/14 29/32/14 27/29/14
f 30/33/15 31/34/15 29/32/15
f 32/35/16 33/36/16 31/37/16
f 34/38/17 35/39/17 33/36/17
f 36/40/18 37/41/18 35/39/18
f 38/42/19 39/43/19 37/41/19
f 40/44/20 41/45/20 39/43/20
f 42/46/21 43/47/21 41/48/21
f 44/49/22 45/50/22 43/47/22
f 46/51/23 47/52/23 45/50/23
f 48/53/24 49/54/24 47/52/24
f 50/55/25 51/56/25 49/54/25
f 52/57/26 53/58/26 51/56/26
f 54/59/27 55/60/27 53/58/27
f 56/61/28 57/62/28 55/60/28
f 58/63/29 59/64/29 57/65/29
f 60/66/30 61/67/30 59/64/30
f 54/68/31 38/69/31 22/70/31
f 62/71/32 63/72/32 61/67/32
f 64/73/33 1/3/33 63/72/33
f 15/74/34 31/75/34 47/76/34
f 2/1/1 4/4/1 3/2/1
f 4/4/2 6/77/2 5/5/2
f 6/6/3 8/9/3 7/7/3
f 8/9/4 10/78/4 9/10/4
f 10/11/5 12/14/5 11/12/5
f 12/14/6 14/16/6 13/15/6
f 14/16/7 16/18/7 15/17/7
f 16/18/8 18/20/8 17/19/8
f 18/20/9 20/22/9 19/21/9
f 20/22/10 22/24/10 21/23/10
f 22/24/11 24/26/11 23/25/11
f 24/26/12 26/79/12 25/27/12
f 26/28/13 28/31/13 27/29/13
f 28/31/14 30/33/14 29/32/14
f 30/33/15 32/80/15 31/34/15
f 32/35/16 34/38/16 33/36/16
f 34/38/17 36/40/17 35/39/17
f 36/40/18 38/42/18 37/41/18
f 38/42/19 40/44/19 39/43/19
f 40/44/20 42/81/20 41/45/20
f 42/46/21 44/49/21 43/47/21
f 44/49/22 46/51/22 45/50/22
f 46/51/23 48/53/23 47/52/23
f 48/53/24 50/55/24 49/54/24
f 50/55/25 52/57/25 51/56/25
f 52/57/26 54/59/26 53/58/26
f 54/59/27 56/61/27 55/60/27
f 56/61/28 58/82/28 57/62/28
f 58/63/29 60/66/29 59/64/29
f 60/66/30 62/71/30 61/67/30
f 6/83/31 4/84/31 2/85/31
f 2/85/31 64/86/31 6/83/31
f 64/86/31 62/87/31 6/83/31
f 62/87/31 60/88/31 58/89/31
f 58/89/31 56/90/31 54/68/31
f 54/68/31 52/91/31 50/92/31
f 50/92/31 48/93/31 54/68/31
f 48/93/31 46/94/31 54/68/31
f 46/94/31 44/95/31 38/69/31
f 44/95/31 42/96/31 38/69/31
f 42/96/31 40/97/31 38/69/31
f 38/69/31 36/98/31 34/99/31
f 34/99/31 32/100/31 30/101/31
f 30/101/31 28/102/31 26/103/31
f 26/103/31 24/104/31 22/70/31
f 22/70/31 20/105/31 18/106/31
f 18/106/31 16/107/31 22/70/31
f 16/107/31 14/108/31 22/70/31
f 14/108/31 12/109/31 10/110/31
f 10/110/31 8/111/31 6/83/31
f 62/87/31 58/89/31 6/83/31
f 58/89/31 54/68/31 6/83/31
f 38/69/31 34/99/31 22/70/31
f 34/99/31 30/101/31 22/70/31
f 30/101/31 26/103/31 22/70/31
f 14/108/31 10/110/31 22/70/31
f 10/110/31 6/83/31 22/70/31
f 54/68/31 46/94/31 38/69/31
f 6/83/31 54/68/31 22/70/31
f 62/71/32 64/73/32 63/72/32
f 64/73/33 2/1/33 1/3/33
f 63/112/34 1/113/34 3/114/34
f 3/114/34 5/115/34 7/116/34
f 7/116/34 9/117/34 11/118/34
f 11/118/34 13/119/34 7/116/34
f 13/119/34 15/74/34 7/116/34
f 15/74/34 17/120/34 19/121/34
f 19/121/34 21/122/34 15/74/34
f 21/122/34 23/123/34 15/74/34
f 23/123/34 25/124/34 31/75/34
f 25/124/34 27/125/34 31/75/34
f 27/125/34 29/126/34 31/75/34
f 31/75/34 33/127/34 35/128/34
f 35/128/34 37/129/34 39/130/34
f 39/130/34 41/131/34 43/132/34
f 43/132/34 45/133/34 47/76/34
f 47/76/34 49/134/34 51/135/34
f 51/135/34 53/136/34 55/137/34
f 55/137/34 57/138/34 63/112/34
f 57/138/34 59/139/34 63/112/34
f 59/139/34 61/140/34 63/112/34
f 63/112/34 3/114/34 7/116/34
f 31/75/34 35/128/34 47/76/34
f 35/128/34 39/130/34 47/76/34
f 39/130/34 43/132/34 47/76/34
f 47/76/34 51/135/34 63/112/34
f 51/135/34 55/137/34 63/112/34
f 63/112/34 7/116/34 15/74/34
f 15/74/34 23/123/34 31/75/34
f 63/112/34 15/74/34 47/76/34
