# Blender v3.0.0 OBJ File: 'white_piece.blend'
# www.blender.org
o White_Piece_Cylinder
v -0.000000 -0.003719 -0.009000
v -0.000000 0.003719 -0.009000
v 0.001756 -0.003719 -0.008827
v 0.001756 0.003719 -0.008827
v 0.003444 -0.003719 -0.008315
v 0.003444 0.003719 -0.008315
v 0.005000 -0.003719 -0.007483
v 0.005000 0.003719 -0.007483
v 0.006364 -0.003719 -0.006364
v 0.006364 0.003719 -0.006364
v 0.007483 -0.003719 -0.005000
v 0.007483 0.003719 -0.005000
v 0.008315 -0.003719 -0.003444
v 0.008315 0.003719 -0.003444
v 0.008827 -0.003719 -0.001756
v 0.008827 0.003719 -0.001756
v 0.009000 -0.003719 0.000000
v 0.009000 0.003719 0.000000
v 0.008827 -0.003719 0.001756
v 0.008827 0.003719 0.001756
v 0.008315 -0.003719 0.003444
v 0.008315 0.003719 0.003444
v 0.007483 -0.003719 0.005000
v 0.007483 0.003719 0.005000
v 0.006364 -0.003719 0.006364
v 0.006364 0.003719 0.006364
v 0.005000 -0.003719 0.007483
v 0.005000 0.003719 0.007483
v 0.003444 -0.003719 0.008315
v 0.003444 0.003719 0.008315
v 0.001756 -0.003719 0.008827
v 0.001756 0.003719 0.008827
v -0.000000 -0.003719 0.009000
v -0.000000 0.003719 0.009000
v -0.001756 -0.003719 0.008827
v -0.001756 0.003719 0.008827
v -0.003444 -0.003719 0.008315
v -0.003444 0.003719 0.008315
v -0.005000 -0.003719 0.007483
v -0.005000 0.003719 0.007483
v -0.006364 -0.003719 0.006364
v -0.006364 0.003719 0.006364
v -0.007483 -0.003719 0.005000
v -0.007483 0.003719 0.005000
v -0.008315 -0.003719 0.003444
v -0.008315 0.003719 0.003444
v -0.008827 -0.003719 0.001756
v -0.008827 0.003719 0.001756
v -0.009000 -0.003719 -0.000000
v -0.009000 0.003719 -0.000000
v -0.008827 -0.003719 -0.001756
v -0.008827 0.003719 -0.001756
v -0.008315 -0.003719 -0.003444
v -0.008315 0.003719 -0.003444
v -0.007483 -0.003719 -0.005000
v -0.007483 0.003719 -0.005000
v -0.006364 -0.003719 -0.006364
v -0.006364 0.003719 -0.006364
v -0.005000 -0.003719 -0.007483
v -0.005000 0.003719 -0.007483
v -0.003444 -0.003719 -0.008315
v -0.003444 0.003719 -0.008315
v -0.001756 -0.003719 -0.008827
v -0.001756 0.003719 -0.008827
v 0.000883 -0.003739 -0.008962
v 0.000883 0.003739 -0.008962
v 0.002614 -0.003739 -0.008617
v 0.002614 0.003739 -0.008617
v 0.004245 -0.003739 -0.007942
v 0.004245 0.003739 -0.007942
v 0.005713 -0.003739 -0.006961
v 0.005713 0.003739 -0.006961
v 0.006961 -0.003739 -0.005713
v 0.006961 0.003739 -0.005713
v 0.007942 -0.003739 -0.004245
v 0.007942 0.003739 -0.004245
v 0.008617 -0.003739 -0.002614
v 0.008617 0.003739 -0.002614
v 0.008962 -0.003739 -0.000883
v 0.008962 0.003739 -0.000883
v 0.008962 -0.003739 0.000883
v 0.008962 0.003739 0.000883
v 0.008617 -0.003739 0.002614
v 0.008617 0.003739 0.002614
v 0.007942 -0.003739 0.004245
v 0.007942 0.003739 0.004245
v 0.006961 -0.003739 0.005713
v 0.006961 0.003739 0.005713
v 0.005713 -0.003739 0.006961
v 0.005713 0.003739 0.006961
v 0.004245 -0.003739 0.007942
v 0.004245 0.003739 0.007942
v 0.002614 -0.003739 0.008617
v 0.002614 0.003739 0.008617
v 0.000883 -0.003739 0.008962
v 0.000883 0.003739 0.008962
v -0.000883 -0.003739 0.008962
v -0.000883 0.003739 0.008962
v -0.002614 -0.003739 0.008617
v -0.002614 0.003739 0.008617
v -0.004245 -0.003739 0.007942
v -0.004245 0.003739 0.007942
v -0.005713 -0.003739 0.006961
v -0.005713 0.003739 0.006961
v -0.006961 -0.003739 0.005713
v -0.006961 0.003739 0.005713
v -0.007942 -0.003739 0.004245
v -0.007942 0.003739 0.004245
v -0.008617 -0.003739 0.002614
v -0.008617 0.003739 0.002614
v -0.008962 -0.003739 0.000883
v -0.008962 0.003739 0.000883
v -0.008962 -0.003739 -0.000883
v -0.008962 0.003739 -0.000883
v -0.008617 -0.003739 -0.002614
v -0.008617 0.003739 -0.002614
v -0.007942 -0.003739 -0.004245
v -0.007942 0.003739 -0.004245
v -0.006961 -0.003739 -0.005713
v -0.006961 0.003739 -0.005713
v -0.005713 -0.003739 -0.006961
v -0.005713 0.003739 -0.006961
v -0.004245 -0.003739 -0.007942
v -0.004245 0.003739 -0.007942
v -0.002614 -0.003739 -0.008617
v -0.002614 0.003739 -0.008617
v -0.000883 -0.003739 -0.008962
v -0.000883 0.003739 -0.008962
vt 0.499034 0.980645
vt 0.101571 0.768196
vt 0.837049 0.164604
vt 0.238874 0.889953
vt 0.930062 0.322709
vt 0.319645 0.069866
vt 0.038538 0.986391
vt 0.024923 0.492361
vt 0.038538 0.492361
vt 0.053976 0.986391
vt 0.053976 0.492361
vt 0.069414 0.986391
vt 0.069414 0.492361
vt 0.084853 0.492361
vt 0.100291 0.986391
vt 0.100291 0.492361
vt 0.115730 0.492361
vt 0.131168 0.986391
vt 0.131168 0.492361
vt 0.146607 0.492361
vt 0.162045 0.986391
vt 0.162045 0.492361
vt 0.177483 0.986391
vt 0.177483 0.492361
vt 0.192922 0.986391
vt 0.192922 0.492361
vt 0.208360 0.492361
vt 0.223799 0.986391
vt 0.223799 0.492361
vt 0.239237 0.492361
vt 0.254675 0.986391
vt 0.254675 0.492361
vt 0.270114 0.492361
vt 0.285552 0.986391
vt 0.285552 0.492361
vt 0.300991 0.492361
vt 0.316429 0.986391
vt 0.316429 0.492361
vt 0.331868 0.492361
vt 0.347306 0.986391
vt 0.347306 0.492361
vt 0.362745 0.492361
vt 0.378183 0.986391
vt 0.378183 0.492361
vt 0.393621 0.986391
vt 0.393621 0.492361
vt 0.409060 0.986391
vt 0.409060 0.492361
vt 0.424498 0.492361
vt 0.439937 0.986391
vt 0.439937 0.492361
vt 0.455375 0.492361
vt 0.470813 0.986391
vt 0.470813 0.492361
vt 0.486252 0.492361
vt 0.501690 0.986391
vt 0.501690 0.492361
vt 0.517129 0.492361
vt 0.532567 0.986391
vt 0.532567 0.492361
vt 0.548006 0.986391
vt 0.548006 0.492361
vt 0.563444 0.986391
vt 0.563444 0.492361
vt 0.578882 0.492361
vt 0.594321 0.986391
vt 0.594321 0.492361
vt 0.609759 0.492361
vt 0.625198 0.986391
vt 0.625198 0.492361
vt 0.640636 0.492361
vt 0.656075 0.986391
vt 0.656075 0.492361
vt 0.671513 0.986391
vt 0.671513 0.492361
vt 0.686951 0.986391
vt 0.686951 0.492361
vt 0.702390 0.986391
vt 0.702390 0.492361
vt 0.717828 0.986391
vt 0.717828 0.492361
vt 0.733267 0.492361
vt 0.748705 0.986391
vt 0.748705 0.492361
vt 0.764143 0.492361
vt 0.779582 0.986391
vt 0.779582 0.492361
vt 0.795020 0.986391
vt 0.795020 0.492361
vt 0.810459 0.986391
vt 0.810459 0.492361
vt 0.825897 0.986391
vt 0.825897 0.492361
vt 0.841336 0.986391
vt 0.841336 0.492361
vt 0.856774 0.492361
vt 0.872212 0.986391
vt 0.872212 0.492361
vt 0.887651 0.986391
vt 0.887651 0.492361
vt 0.903089 0.986391
vt 0.903089 0.492361
vt 0.918528 0.492361
vt 0.933966 0.986391
vt 0.933966 0.492361
vt 0.949405 0.492361
vt 0.964843 0.986391
vt 0.964843 0.492361
vt 0.980124 0.492357
vt 0.980124 0.986386
vt 0.995404 0.492357
vt 0.995404 0.986386
vt 0.024923 0.986391
vt 0.011308 0.492361
vt 0.637129 0.957858
vt 0.592292 0.971460
vt 0.545663 0.976052
vt 0.452405 0.976052
vt 0.405777 0.971460
vt 0.360940 0.957858
vt 0.316102 0.944257
vt 0.274780 0.922170
vt 0.233458 0.900083
vt 0.131295 0.804416
vt 0.197239 0.870359
vt 0.161019 0.840635
vt 0.079484 0.726874
vt 0.057396 0.685552
vt 0.360939 0.047380
vt 0.043795 0.640715
vt 0.030194 0.595878
vt 0.025601 0.455991
vt 0.025601 0.549249
vt 0.021009 0.502620
vt 0.030194 0.409362
vt 0.043795 0.364524
vt 0.057396 0.319687
vt 0.079483 0.278365
vt 0.101570 0.237043
vt 0.131295 0.200824
vt 0.161019 0.164604
vt 0.197238 0.134880
vt 0.233457 0.105156
vt 0.316101 0.060981
vt 0.274779 0.083069
vt 0.405776 0.033779
vt 0.545663 0.029186
vt 0.452405 0.029186
vt 0.499034 0.024594
vt 0.592292 0.033779
vt 0.637129 0.047380
vt 0.681966 0.060981
vt 0.723289 0.083069
vt 0.764611 0.105156
vt 0.800830 0.134880
vt 0.866773 0.200823
vt 0.954273 0.364524
vt 0.896498 0.237043
vt 0.940672 0.319687
vt 0.918585 0.278365
vt 0.967874 0.409361
vt 0.764611 0.900083
vt 0.972467 0.455990
vt 0.977060 0.502619
vt 0.972467 0.549248
vt 0.967874 0.595877
vt 0.954273 0.640715
vt 0.940672 0.685552
vt 0.918585 0.726874
vt 0.896498 0.768196
vt 0.800830 0.870358
vt 0.866773 0.804415
vt 0.837049 0.840634
vt 0.723289 0.922170
vt 0.681966 0.944257
vt 0.452860 0.964201
vt 0.498432 0.968689
vt 0.793389 0.860902
vt 0.544004 0.964201
vt 0.589577 0.959712
vt 0.633398 0.946419
vt 0.677219 0.933126
vt 0.757990 0.889953
vt 0.717605 0.911539
vt 0.828787 0.831851
vt 0.857838 0.796453
vt 0.886889 0.761055
vt 0.908476 0.720669
vt 0.961137 0.547068
vt 0.930062 0.680283
vt 0.956648 0.592641
vt 0.943355 0.636462
vt 0.965626 0.501496
vt 0.943355 0.366530
vt 0.961137 0.455924
vt 0.956648 0.410351
vt 0.908476 0.282323
vt 0.886889 0.241937
vt 0.544004 0.038791
vt 0.589577 0.043280
vt 0.857838 0.206539
vt 0.677219 0.069866
vt 0.828787 0.171141
vt 0.717605 0.091452
vt 0.793389 0.142090
vt 0.757990 0.113039
vt 0.633398 0.056573
vt 0.498432 0.034303
vt 0.407287 0.043280
vt 0.452859 0.038791
vt 0.363466 0.056573
vt 0.279259 0.091453
vt 0.238873 0.113039
vt 0.035727 0.455924
vt 0.040216 0.410351
vt 0.203475 0.142090
vt 0.066802 0.322709
vt 0.168076 0.171141
vt 0.088388 0.282323
vt 0.139026 0.206539
vt 0.109975 0.241938
vt 0.053509 0.366530
vt 0.031239 0.501496
vt 0.168077 0.831852
vt 0.035727 0.547069
vt 0.040216 0.592641
vt 0.053509 0.636462
vt 0.139026 0.796453
vt 0.066802 0.680283
vt 0.109976 0.761055
vt 0.088389 0.720669
vt 0.203476 0.860902
vt 0.279260 0.911540
vt 0.319645 0.933126
vt 0.407288 0.959712
vt 0.363467 0.946419
vt 0.084853 0.986391
vt 0.115730 0.986391
vt 0.146607 0.986391
vt 0.208360 0.986391
vt 0.239237 0.986391
vt 0.270114 0.986391
vt 0.300991 0.986391
vt 0.331868 0.986391
vt 0.362745 0.986391
vt 0.424498 0.986391
vt 0.455375 0.986391
vt 0.486252 0.986391
vt 0.517129 0.986391
vt 0.578882 0.986391
vt 0.609759 0.986391
vt 0.640636 0.986391
vt 0.733267 0.986391
vt 0.764143 0.986391
vt 0.856774 0.986391
vt 0.918528 0.986391
vt 0.949405 0.986391
vt 0.011308 0.986391
vn 0.0000 1.0000 0.0000
vn 0.0000 -1.0000 0.0000
vn -0.1522 0.0000 -0.9883
vn -0.2376 0.0000 -0.9714
vn -0.3421 0.0000 -0.9397
vn -0.4225 0.0000 -0.9063
vn -0.5189 0.0000 -0.8549
vn -0.5912 0.0000 -0.8065
vn -0.6757 0.0000 -0.7372
vn -0.7372 0.0000 -0.6757
vn -0.8065 0.0000 -0.5912
vn -0.8549 0.0000 -0.5189
vn -0.9063 0.0000 -0.4225
vn -0.9397 0.0000 -0.3421
vn -0.9714 0.0000 -0.2376
vn -0.9883 0.0000 -0.1522
vn -0.9991 0.0000 -0.0435
vn -0.9991 0.0000 0.0435
vn -0.9883 0.0000 0.1522
vn -0.9714 0.0000 0.2376
vn -0.9397 0.0000 0.3421
vn -0.9064 0.0000 0.4225
vn -0.8549 0.0000 0.5189
vn -0.8065 0.0000 0.5912
vn -0.7372 0.0000 0.6757
vn -0.6757 0.0000 0.7372
vn -0.5912 0.0000 0.8065
vn -0.5189 0.0000 0.8549
vn -0.4225 0.0000 0.9064
vn -0.3421 0.0000 0.9397
vn -0.2376 0.0000 0.9714
vn -0.1522 0.0000 0.9883
vn -0.0435 0.0000 0.9991
vn 0.0435 0.0000 0.9991
vn 0.1522 0.0000 0.9883
vn 0.2376 0.0000 0.9714
vn 0.3421 0.0000 0.9397
vn 0.4225 0.0000 0.9064
vn 0.5189 0.0000 0.8549
vn 0.5912 0.0000 0.8065
vn 0.6757 0.0000 0.7372
vn 0.7372 0.0000 0.6757
vn 0.8065 0.0000 0.5912
vn 0.8549 0.0000 0.5189
vn 0.9063 0.0000 0.4225
vn 0.9397 0.0000 0.3421
vn 0.9714 0.0000 0.2376
vn 0.9883 0.0000 0.1522
vn 0.9991 0.0000 0.0435
vn 0.9991 0.0000 -0.0435
vn 0.9883 0.0000 -0.1522
vn 0.9714 0.0000 -0.2376
vn 0.9397 0.0000 -0.3421
vn 0.9063 0.0000 -0.4225
vn 0.8549 0.0000 -0.5189
vn 0.8065 0.0000 -0.5912
vn 0.7372 0.0000 -0.6757
vn 0.6757 0.0000 -0.7372
vn 0.5912 0.0000 -0.8065
vn 0.5189 0.0000 -0.8549
vn 0.4225 0.0000 -0.9063
vn 0.3421 0.0000 -0.9397
vn 0.2376 0.0000 -0.9714
vn 0.1522 0.0000 -0.9883
vn 0.0435 0.0000 -0.9991
vn -0.0435 0.0000 -0.9991
vn -0.0252 0.9997 0.0076
vn -0.0376 0.9235 0.3816
vn 0.0376 0.9235 0.3816
vn 0.1113 0.9235 0.3670
vn -0.0460 0.9874 -0.1517
vn -0.1006 0.9874 -0.1225
vn 0.2433 0.9235 0.2964
vn 0.0577 0.9959 0.0703
vn 0.3382 0.9235 0.1808
vn 0.0268 0.9995 -0.0143
vn -0.0016 1.0000 -0.0009
vn -0.1578 0.9874 -0.0155
vn 0.3816 0.9235 0.0376
vn 0.0905 0.9959 0.0089
vn 0.3670 0.9235 -0.1113
vn 0.3382 0.9235 -0.1808
vn 0.2964 0.9235 -0.2433
vn 0.0429 0.9959 -0.0802
vn -0.0068 1.0000 0.0036
vn -0.0747 0.9874 0.1398
vn 0.1808 0.9235 -0.3382
vn -0.0155 0.9874 0.1578
vn 0.0376 0.9235 -0.3816
vn 0.0089 0.9959 -0.0905
vn -0.1113 0.9235 -0.3670
vn -0.1808 0.9235 -0.3382
vn -0.2433 0.9235 -0.2964
vn -0.0802 0.9959 -0.0429
vn 0.0036 1.0000 0.0068
vn 0.1398 0.9874 0.0747
vn -0.3382 0.9235 -0.1808
vn 0.0354 0.9993 -0.0147
vn -0.3816 0.9235 -0.0376
vn -0.3816 0.9235 0.0376
vn -0.3670 0.9235 0.1113
vn 0.1517 0.9874 -0.0460
vn 0.1225 0.9874 -0.1006
vn -0.2964 0.9235 0.2433
vn -0.0703 0.9959 0.0577
vn -0.1808 0.9235 0.3382
vn 0.0299 0.9994 -0.0160
vn 0.0013 1.0000 -0.0025
vn -0.0031 0.9995 -0.0313
vn 0.0088 0.9998 0.0165
vn -0.0130 0.9999 0.0040
vn -0.0039 1.0000 0.0032
vn 0.0040 0.9999 0.0130
vn 0.0032 1.0000 0.0039
vn 0.0313 0.9995 -0.0031
vn -0.0165 0.9998 0.0088
vn -0.0079 1.0000 0.0042
vn -0.0047 1.0000 0.0025
vn 0.0017 1.0000 -0.0021
vn 0.0198 -0.9977 -0.0653
vn -0.0376 -0.9236 0.3816
vn -0.0429 -0.9959 0.0802
vn 0.0013 -0.9999 -0.0136
vn 0.0747 -0.9874 -0.1398
vn -0.1808 -0.9235 0.3382
vn -0.0152 -0.9986 0.0501
vn -0.2964 -0.9236 0.2433
vn -0.0870 -0.9959 0.0264
vn 0.1517 -0.9874 -0.0460
vn -0.3670 -0.9235 0.1113
vn 0.1578 -0.9874 0.0155
vn -0.3816 -0.9236 -0.0376
vn -0.0905 -0.9959 -0.0089
vn -0.3382 -0.9236 -0.1808
vn 0.0298 -0.9986 0.0446
vn -0.0577 -0.9959 -0.0703
vn 0.0045 -1.0000 0.0024
vn 0.1006 -0.9874 0.1225
vn -0.2433 -0.9235 -0.2964
vn -0.1113 -0.9236 -0.3670
vn -0.0155 -0.9874 0.1578
vn 0.0376 -0.9236 -0.3816
vn 0.1113 -0.9235 -0.3670
vn -0.0091 -0.9995 0.0301
vn 0.1808 -0.9236 -0.3382
vn -0.0446 -0.9986 0.0298
vn 0.0703 -0.9959 -0.0577
vn -0.0024 -1.0000 0.0045
vn -0.1225 -0.9874 0.1006
vn 0.2964 -0.9236 -0.2433
vn 0.3670 -0.9235 -0.1113
vn -0.0495 -0.9986 -0.0205
vn 0.3816 -0.9236 0.0376
vn 0.0802 -0.9959 0.0429
vn -0.1398 -0.9874 -0.0747
vn 0.3382 -0.9236 0.1808
vn 0.2433 -0.9235 0.2964
vn 0.0264 -0.9959 0.0870
vn -0.0460 -0.9874 -0.1517
vn 0.1113 -0.9235 0.3670
vn 0.0039 -1.0000 -0.0032
vn -0.0187 -0.9998 0.0018
vn -0.0034 -1.0000 -0.0082
vn -0.0032 -1.0000 -0.0039
vn -0.0017 -1.0000 0.0087
vn 0.0042 -1.0000 -0.0004
vn -0.9063 0.0000 0.4225
vn 0.9064 0.0000 0.4225
s off
f 2/1/1 56/2/1 26/3/1
f 59/4/2 21/5/2 37/6/2
f 64/7/3 127/8/3 63/9/3
f 126/10/4 63/9/4 125/11/4
f 62/12/5 125/11/5 61/13/5
f 123/14/6 62/12/6 61/13/6
f 60/15/7 123/14/7 59/16/7
f 121/17/8 60/15/8 59/16/8
f 58/18/9 121/17/9 57/19/9
f 119/20/10 58/18/10 57/19/10
f 56/21/11 119/20/11 55/22/11
f 118/23/12 55/22/12 117/24/12
f 54/25/13 117/24/13 53/26/13
f 115/27/14 54/25/14 53/26/14
f 52/28/15 115/27/15 51/29/15
f 113/30/16 52/28/16 51/29/16
f 50/31/17 113/30/17 49/32/17
f 111/33/18 50/31/18 49/32/18
f 48/34/19 111/33/19 47/35/19
f 109/36/20 48/34/20 47/35/20
f 46/37/21 109/36/21 45/38/21
f 107/39/22 46/37/22 45/38/22
f 44/40/23 107/39/23 43/41/23
f 105/42/24 44/40/24 43/41/24
f 42/43/25 105/42/25 41/44/25
f 104/45/26 41/44/26 103/46/26
f 40/47/27 103/46/27 39/48/27
f 101/49/28 40/47/28 39/48/28
f 38/50/29 101/49/29 37/51/29
f 99/52/30 38/50/30 37/51/30
f 36/53/31 99/52/31 35/54/31
f 97/55/32 36/53/32 35/54/32
f 34/56/33 97/55/33 33/57/33
f 95/58/34 34/56/34 33/57/34
f 32/59/35 95/58/35 31/60/35
f 94/61/36 31/60/36 93/62/36
f 30/63/37 93/62/37 29/64/37
f 91/65/38 30/63/38 29/64/38
f 28/66/39 91/65/39 27/67/39
f 89/68/40 28/66/40 27/67/40
f 26/69/41 89/68/41 25/70/41
f 87/71/42 26/69/42 25/70/42
f 24/72/43 87/71/43 23/73/43
f 86/74/44 23/73/44 85/75/44
f 22/76/45 85/75/45 21/77/45
f 84/78/46 21/77/46 83/79/46
f 20/80/47 83/79/47 19/81/47
f 81/82/48 20/80/48 19/81/48
f 18/83/49 81/82/49 17/84/49
f 79/85/50 18/83/50 17/84/50
f 16/86/51 79/85/51 15/87/51
f 78/88/52 15/87/52 77/89/52
f 14/90/53 77/89/53 13/91/53
f 76/92/54 13/91/54 75/93/54
f 12/94/55 75/93/55 11/95/55
f 73/96/56 12/94/56 11/95/56
f 10/97/57 73/96/57 9/98/57
f 72/99/58 9/98/58 71/100/58
f 8/101/59 71/100/59 7/102/59
f 69/103/60 8/101/60 7/102/60
f 6/104/61 69/103/61 5/105/61
f 67/106/62 6/104/62 5/105/62
f 4/107/63 67/106/63 3/108/63
f 65/109/64 4/107/64 3/108/64
f 66/110/65 1/111/65 2/112/65
f 128/113/66 1/114/66 127/8/66
f 68/115/67 4/116/67 26/3/67
f 4/116/68 66/117/68 2/1/68
f 2/1/69 128/118/69 64/119/69
f 64/119/70 126/120/70 62/121/70
f 124/122/71 64/119/71 62/121/71
f 124/122/72 60/123/72 120/124/72
f 60/123/73 122/125/73 58/126/73
f 120/124/72 60/123/72 58/126/72
f 120/124/74 56/2/74 124/122/74
f 56/2/75 118/127/75 54/128/75
f 100/129/76 54/128/76 116/130/76
f 56/2/77 54/128/77 100/129/77
f 116/130/78 52/131/78 112/132/78
f 52/131/79 114/133/79 50/134/79
f 112/132/78 52/131/78 50/134/78
f 112/132/80 48/135/80 116/130/80
f 48/135/81 110/136/81 46/137/81
f 46/137/82 108/138/82 44/139/82
f 44/139/83 106/140/83 42/141/83
f 42/141/84 104/142/84 100/129/84
f 44/139/85 116/130/85 46/137/85
f 104/142/86 40/143/86 38/144/86
f 40/143/87 102/145/87 38/144/87
f 38/144/86 100/129/86 104/142/86
f 100/129/88 36/146/88 96/147/88
f 36/146/89 98/148/89 34/149/89
f 96/147/88 36/146/88 34/149/88
f 96/147/90 32/150/90 100/129/90
f 32/150/91 94/151/91 30/152/91
f 30/152/92 92/153/92 28/154/92
f 28/154/93 90/155/93 26/3/93
f 26/3/94 88/156/94 84/157/94
f 28/154/95 100/129/95 30/152/95
f 88/156/96 24/158/96 22/159/96
f 24/158/97 86/160/97 22/159/97
f 22/159/96 84/157/96 88/156/96
f 84/157/98 20/161/98 8/162/98
f 20/161/99 82/163/99 18/164/99
f 18/164/100 80/165/100 16/166/100
f 16/166/101 78/167/101 14/168/101
f 76/169/102 16/166/102 14/168/102
f 76/169/103 12/170/103 72/171/103
f 12/170/104 74/172/104 10/173/104
f 72/171/103 12/170/103 10/173/103
f 72/171/105 8/162/105 76/169/105
f 8/162/106 70/174/106 6/175/106
f 84/157/107 6/175/107 68/115/107
f 8/162/108 6/175/108 84/157/108
f 4/116/1 2/1/1 26/3/1
f 124/122/109 2/1/109 64/119/109
f 124/122/110 56/2/110 2/1/110
f 48/135/111 46/137/111 116/130/111
f 44/139/112 42/141/112 116/130/112
f 32/150/113 30/152/113 100/129/113
f 28/154/114 26/3/114 100/129/114
f 20/161/1 18/164/1 8/162/1
f 76/169/115 18/164/115 16/166/115
f 76/169/116 8/162/116 18/164/116
f 42/141/117 100/129/117 116/130/117
f 26/3/118 84/157/118 68/115/118
f 100/129/119 26/3/119 56/2/119
f 127/176/120 1/177/120 71/178/120
f 1/177/121 65/179/121 3/180/121
f 71/178/122 3/180/122 67/181/122
f 1/177/123 3/180/123 71/178/123
f 67/181/124 5/182/124 7/183/124
f 5/182/125 69/184/125 7/183/125
f 7/183/124 71/178/124 67/181/124
f 71/178/126 9/185/126 127/176/126
f 9/185/127 73/186/127 11/187/127
f 11/187/128 75/188/128 79/189/128
f 75/188/129 13/190/129 15/191/129
f 13/190/130 77/192/130 15/191/130
f 15/191/129 79/189/129 75/188/129
f 79/189/131 17/193/131 83/194/131
f 17/193/132 81/195/132 19/196/132
f 83/194/131 17/193/131 19/196/131
f 83/194/133 21/5/133 79/189/133
f 21/5/134 85/197/134 23/198/134
f 95/199/135 23/198/135 31/200/135
f 23/198/136 87/201/136 29/202/136
f 21/5/137 23/198/137 95/199/137
f 87/201/138 25/203/138 91/204/138
f 25/203/139 89/205/139 27/206/139
f 91/204/138 25/203/138 27/206/138
f 91/204/136 29/202/136 87/201/136
f 29/202/140 93/207/140 31/200/140
f 29/202/2 31/200/2 23/198/2
f 95/199/141 33/208/141 35/209/141
f 33/208/142 97/210/142 35/209/142
f 35/209/143 99/211/143 37/6/143
f 95/199/144 35/209/144 37/6/144
f 37/6/145 101/212/145 39/213/145
f 111/214/146 39/213/146 47/215/146
f 39/213/147 103/216/147 45/217/147
f 37/6/148 39/213/148 111/214/148
f 103/216/149 41/218/149 107/219/149
f 41/218/150 105/220/150 43/221/150
f 107/219/149 41/218/149 43/221/149
f 107/219/147 45/217/147 103/216/147
f 45/217/151 109/222/151 47/215/151
f 45/217/2 47/215/2 39/213/2
f 111/214/152 49/223/152 57/224/152
f 49/223/153 113/225/153 51/226/153
f 51/226/154 115/227/154 119/228/154
f 115/227/155 53/229/155 55/230/155
f 53/229/156 117/231/156 55/230/156
f 55/230/155 119/228/155 115/227/155
f 119/228/154 57/224/154 51/226/154
f 57/224/157 121/232/157 59/4/157
f 59/4/158 123/233/158 127/176/158
f 123/233/159 61/234/159 63/235/159
f 61/234/160 125/236/160 63/235/160
f 63/235/159 127/176/159 123/233/159
f 9/185/161 11/187/161 127/176/161
f 79/189/162 21/5/162 11/187/162
f 95/199/163 37/6/163 21/5/163
f 49/223/2 51/226/2 57/224/2
f 57/224/164 59/4/164 111/214/164
f 127/176/165 11/187/165 59/4/165
f 111/214/166 59/4/166 37/6/166
f 11/187/2 21/5/2 59/4/2
f 64/7/3 128/113/3 127/8/3
f 126/10/4 64/7/4 63/9/4
f 62/12/5 126/10/5 125/11/5
f 123/14/6 124/237/6 62/12/6
f 60/15/7 124/237/7 123/14/7
f 121/17/8 122/238/8 60/15/8
f 58/18/9 122/238/9 121/17/9
f 119/20/10 120/239/10 58/18/10
f 56/21/11 120/239/11 119/20/11
f 118/23/12 56/21/12 55/22/12
f 54/25/13 118/23/13 117/24/13
f 115/27/14 116/240/14 54/25/14
f 52/28/15 116/240/15 115/27/15
f 113/30/16 114/241/16 52/28/16
f 50/31/17 114/241/17 113/30/17
f 111/33/18 112/242/18 50/31/18
f 48/34/19 112/242/19 111/33/19
f 109/36/20 110/243/20 48/34/20
f 46/37/21 110/243/21 109/36/21
f 107/39/167 108/244/167 46/37/167
f 44/40/23 108/244/23 107/39/23
f 105/42/24 106/245/24 44/40/24
f 42/43/25 106/245/25 105/42/25
f 104/45/26 42/43/26 41/44/26
f 40/47/27 104/45/27 103/46/27
f 101/49/28 102/246/28 40/47/28
f 38/50/29 102/246/29 101/49/29
f 99/52/30 100/247/30 38/50/30
f 36/53/31 100/247/31 99/52/31
f 97/55/32 98/248/32 36/53/32
f 34/56/33 98/248/33 97/55/33
f 95/58/34 96/249/34 34/56/34
f 32/59/35 96/249/35 95/58/35
f 94/61/36 32/59/36 31/60/36
f 30/63/37 94/61/37 93/62/37
f 91/65/38 92/250/38 30/63/38
f 28/66/39 92/250/39 91/65/39
f 89/68/40 90/251/40 28/66/40
f 26/69/41 90/251/41 89/68/41
f 87/71/42 88/252/42 26/69/42
f 24/72/43 88/252/43 87/71/43
f 86/74/44 24/72/44 23/73/44
f 22/76/168 86/74/168 85/75/168
f 84/78/46 22/76/46 21/77/46
f 20/80/47 84/78/47 83/79/47
f 81/82/48 82/253/48 20/80/48
f 18/83/49 82/253/49 81/82/49
f 79/85/50 80/254/50 18/83/50
f 16/86/51 80/254/51 79/85/51
f 78/88/52 16/86/52 15/87/52
f 14/90/53 78/88/53 77/89/53
f 76/92/54 14/90/54 13/91/54
f 12/94/55 76/92/55 75/93/55
f 73/96/56 74/255/56 12/94/56
f 10/97/57 74/255/57 73/96/57
f 72/99/58 10/97/58 9/98/58
f 8/101/59 72/99/59 71/100/59
f 69/103/60 70/256/60 8/101/60
f 6/104/61 70/256/61 69/103/61
f 67/106/62 68/257/62 6/104/62
f 4/107/63 68/257/63 67/106/63
f 65/109/64 66/110/64 4/107/64
f 66/110/65 65/109/65 1/111/65
f 128/113/66 2/258/66 1/114/66
