# Blender 4.2.3 LTS
# www.blender.org
o White_Piece
v -0.000000 -0.074000 -0.180000
v -0.000000 0.074000 -0.180000
v 0.035116 -0.074000 -0.176541
v 0.035116 0.074000 -0.176541
v 0.068883 -0.074000 -0.166298
v 0.068883 0.074000 -0.166298
v 0.100003 -0.074000 -0.149664
v 0.100003 0.074000 -0.149664
v 0.127279 -0.074000 -0.127279
v 0.127279 0.074000 -0.127279
v 0.149664 -0.074000 -0.100003
v 0.149664 0.074000 -0.100003
v 0.166298 -0.074000 -0.068883
v 0.166298 0.074000 -0.068883
v 0.176541 -0.074000 -0.035116
v 0.176541 0.074000 -0.035116
v 0.180000 -0.074000 0.000000
v 0.180000 0.074000 0.000000
v 0.176541 -0.074000 0.035116
v 0.176541 0.074000 0.035116
v 0.166298 -0.074000 0.068883
v 0.166298 0.074000 0.068883
v 0.149664 -0.074000 0.100003
v 0.149664 0.074000 0.100003
v 0.127279 -0.074000 0.127279
v 0.127279 0.074000 0.127279
v 0.100003 -0.074000 0.149665
v 0.100003 0.074000 0.149665
v 0.068883 -0.074000 0.166298
v 0.068883 0.074000 0.166298
v 0.035116 -0.074000 0.176541
v 0.035116 0.074000 0.176541
v -0.000000 -0.074000 0.180000
v -0.000000 0.074000 0.180000
v -0.035116 -0.074000 0.176541
v -0.035116 0.074000 0.176541
v -0.068883 -0.074000 0.166298
v -0.068883 0.074000 0.166298
v -0.100003 -0.074000 0.149665
v -0.100003 0.074000 0.149665
v -0.127279 -0.074000 0.127279
v -0.127279 0.074000 0.127279
v -0.149665 -0.074000 0.100003
v -0.149665 0.074000 0.100003
v -0.166298 -0.074000 0.068883
v -0.166298 0.074000 0.068883
v -0.176541 -0.074000 0.035116
v -0.176541 0.074000 0.035116
v -0.180000 -0.074000 -0.000000
v -0.180000 0.074000 -0.000000
v -0.176541 -0.074000 -0.035116
v -0.176541 0.074000 -0.035116
v -0.166298 -0.074000 -0.068883
v -0.166298 0.074000 -0.068883
v -0.149664 -0.074000 -0.100003
v -0.149664 0.074000 -0.100003
v -0.127279 -0.074000 -0.127279
v -0.127279 0.074000 -0.127279
v -0.100002 -0.074000 -0.149665
v -0.100002 0.074000 -0.149665
v -0.068883 -0.074000 -0.166298
v -0.068883 0.074000 -0.166298
v -0.035116 -0.074000 -0.176541
v -0.035116 0.074000 -0.176541
v 0.017653 -0.074399 -0.179231
v 0.017653 0.074399 -0.179231
v 0.052280 -0.074399 -0.172343
v 0.052280 0.074399 -0.172343
v 0.084898 -0.074399 -0.158832
v 0.084898 0.074399 -0.158832
v 0.114253 -0.074399 -0.139218
v 0.114253 0.074399 -0.139218
v 0.139218 -0.074399 -0.114253
v 0.139218 0.074399 -0.114253
v 0.158832 -0.074399 -0.084898
v 0.158832 0.074399 -0.084898
v 0.172343 -0.074399 -0.052280
v 0.172343 0.074399 -0.052280
v 0.179231 -0.074399 -0.017653
v 0.179231 0.074399 -0.017653
v 0.179231 -0.074399 0.017653
v 0.179231 0.074399 0.017653
v 0.172343 -0.074399 0.052280
v 0.172343 0.074399 0.052280
v 0.158832 -0.074399 0.084898
v 0.158832 0.074399 0.084898
v 0.139218 -0.074399 0.114253
v 0.139218 0.074399 0.114253
v 0.114253 -0.074399 0.139218
v 0.114253 0.074399 0.139218
v 0.084898 -0.074399 0.158832
v 0.084898 0.074399 0.158832
v 0.052280 -0.074399 0.172343
v 0.052280 0.074399 0.172343
v 0.017653 -0.074399 0.179231
v 0.017653 0.074399 0.179231
v -0.017653 -0.074399 0.179231
v -0.017653 0.074399 0.179231
v -0.052280 -0.074399 0.172343
v -0.052280 0.074399 0.172343
v -0.084898 -0.074399 0.158832
v -0.084898 0.074399 0.158832
v -0.114253 -0.074399 0.139218
v -0.114253 0.074399 0.139218
v -0.139218 -0.074399 0.114253
v -0.139218 0.074399 0.114253
v -0.158833 -0.074399 0.084898
v -0.158833 0.074399 0.084898
v -0.172343 -0.074399 0.052280
v -0.172343 0.074399 0.052280
v -0.179231 -0.074399 0.017653
v -0.179231 0.074399 0.017653
v -0.179231 -0.074399 -0.017653
v -0.179231 0.074399 -0.017653
v -0.172343 -0.074399 -0.052280
v -0.172343 0.074399 -0.052280
v -0.158832 -0.074399 -0.084898
v -0.158832 0.074399 -0.084898
v -0.139218 -0.074399 -0.114253
v -0.139218 0.074399 -0.114253
v -0.114253 -0.074399 -0.139218
v -0.114253 0.074399 -0.139218
v -0.084898 -0.074399 -0.158833
v -0.084898 0.074399 -0.158833
v -0.052280 -0.074399 -0.172343
v -0.052280 0.074399 -0.172343
v -0.017653 -0.074399 -0.179231
v -0.017653 0.074399 -0.179231
vn -0.0000 1.0000 -0.0000
vn -0.0000 -1.0000 -0.0000
vn -0.1522 -0.0000 -0.9883
vn -0.2376 -0.0000 -0.9714
vn -0.3421 -0.0000 -0.9397
vn -0.4225 -0.0000 -0.9063
vn -0.5189 -0.0000 -0.8549
vn -0.5912 -0.0000 -0.8065
vn -0.6757 -0.0000 -0.7372
vn -0.7372 -0.0000 -0.6757
vn -0.8065 -0.0000 -0.5912
vn -0.8549 -0.0000 -0.5189
vn -0.9063 -0.0000 -0.4225
vn -0.9397 -0.0000 -0.3421
vn -0.9714 -0.0000 -0.2376
vn -0.9883 -0.0000 -0.1522
vn -0.9991 -0.0000 -0.0435
vn -0.9991 -0.0000 0.0435
vn -0.9883 -0.0000 0.1522
vn -0.9714 -0.0000 0.2376
vn -0.9397 -0.0000 0.3421
vn -0.9063 -0.0000 0.4225
vn -0.8549 -0.0000 0.5189
vn -0.8065 -0.0000 0.5912
vn -0.7372 -0.0000 0.6757
vn -0.6757 -0.0000 0.7372
vn -0.5912 -0.0000 0.8065
vn -0.5189 -0.0000 0.8549
vn -0.4225 -0.0000 0.9064
vn -0.3421 -0.0000 0.9397
vn -0.2376 -0.0000 0.9714
vn -0.1522 -0.0000 0.9883
vn -0.0435 -0.0000 0.9991
vn 0.0435 -0.0000 0.9991
vn 0.1522 -0.0000 0.9883
vn 0.2376 -0.0000 0.9714
vn 0.3421 -0.0000 0.9397
vn 0.4225 -0.0000 0.9064
vn 0.5189 -0.0000 0.8549
vn 0.5912 -0.0000 0.8065
vn 0.6757 -0.0000 0.7372
vn 0.7372 -0.0000 0.6757
vn 0.8065 -0.0000 0.5912
vn 0.8549 -0.0000 0.5189
vn 0.9063 -0.0000 0.4225
vn 0.9397 -0.0000 0.3421
vn 0.9714 -0.0000 0.2376
vn 0.9883 -0.0000 0.1522
vn 0.9991 -0.0000 0.0435
vn 0.9991 -0.0000 -0.0435
vn 0.9883 -0.0000 -0.1522
vn 0.9714 -0.0000 -0.2376
vn 0.9397 -0.0000 -0.3421
vn 0.9064 -0.0000 -0.4225
vn 0.8549 -0.0000 -0.5189
vn 0.8065 -0.0000 -0.5912
vn 0.7372 -0.0000 -0.6757
vn 0.6757 -0.0000 -0.7372
vn 0.5912 -0.0000 -0.8065
vn 0.5189 -0.0000 -0.8549
vn 0.4225 -0.0000 -0.9063
vn 0.3421 -0.0000 -0.9397
vn 0.2376 -0.0000 -0.9714
vn 0.1522 -0.0000 -0.9883
vn 0.0435 -0.0000 -0.9991
vn -0.0435 -0.0000 -0.9991
vn 0.0898 0.8878 -0.4514
vn -0.0000 0.8878 -0.4602
vn -0.0898 0.8878 -0.4514
vn -0.1761 0.8878 -0.4252
vn -0.2557 0.8878 -0.3827
vn -0.3254 0.8878 -0.3254
vn -0.3827 0.8878 -0.2557
vn -0.4252 0.8878 -0.1761
vn -0.4514 0.8878 -0.0898
vn -0.4602 0.8878 -0.0000
vn -0.4514 0.8878 0.0898
vn -0.4252 0.8878 0.1761
vn -0.3827 0.8878 0.2557
vn -0.3254 0.8878 0.3254
vn -0.2557 0.8878 0.3826
vn -0.1761 0.8878 0.4252
vn -0.0898 0.8878 0.4514
vn -0.0000 0.8878 0.4602
vn 0.0898 0.8878 0.4514
vn 0.1761 0.8878 0.4252
vn 0.2557 0.8878 0.3827
vn 0.3254 0.8878 0.3254
vn 0.3827 0.8878 0.2557
vn 0.4252 0.8878 0.1761
vn 0.4514 0.8878 0.0898
vn 0.4602 0.8878 -0.0000
vn 0.4514 0.8878 -0.0898
vn 0.4252 0.8878 -0.1761
vn 0.3827 0.8878 -0.2557
vn 0.3254 0.8878 -0.3254
vn 0.2557 0.8878 -0.3827
vn 0.1761 0.8878 -0.4252
vn -0.0000 -0.8878 -0.4602
vn 0.0898 -0.8878 -0.4514
vn 0.1761 -0.8878 -0.4252
vn 0.2557 -0.8878 -0.3827
vn 0.3254 -0.8878 -0.3254
vn 0.3827 -0.8878 -0.2557
vn 0.4252 -0.8878 -0.1761
vn 0.4514 -0.8878 -0.0898
vn 0.4602 -0.8878 -0.0000
vn 0.4514 -0.8878 0.0898
vn 0.4252 -0.8878 0.1761
vn 0.3826 -0.8878 0.2557
vn 0.3254 -0.8878 0.3254
vn 0.2557 -0.8878 0.3827
vn 0.1761 -0.8878 0.4252
vn 0.0898 -0.8878 0.4514
vn -0.0000 -0.8878 0.4602
vn -0.0898 -0.8878 0.4514
vn -0.1761 -0.8878 0.4252
vn -0.2557 -0.8878 0.3826
vn -0.3254 -0.8878 0.3254
vn -0.3826 -0.8878 0.2557
vn -0.4252 -0.8878 0.1761
vn -0.4514 -0.8878 0.0898
vn -0.4602 -0.8878 -0.0000
vn -0.4514 -0.8878 -0.0898
vn -0.4252 -0.8878 -0.1761
vn -0.3827 -0.8878 -0.2557
vn -0.3254 -0.8878 -0.3254
vn -0.2557 -0.8878 -0.3827
vn -0.1761 -0.8878 -0.4252
vn -0.0898 -0.8878 -0.4514
vn -0.9064 -0.0000 0.4225
vn 0.9064 -0.0000 0.4225
vn 0.9063 -0.0000 -0.4225
vt 0.360939 0.047380
vt 0.954273 0.364524
vt 0.637129 0.957858
vt 0.544004 0.038791
vt 0.035727 0.455924
vt 0.452860 0.964201
vt 0.038538 0.986391
vt 0.024923 0.492361
vt 0.038538 0.492361
vt 0.053976 0.986391
vt 0.053976 0.492361
vt 0.069414 0.986391
vt 0.069414 0.492361
vt 0.084853 0.492361
vt 0.100291 0.986391
vt 0.100291 0.492361
vt 0.115730 0.492361
vt 0.131168 0.986391
vt 0.131168 0.492361
vt 0.146607 0.492361
vt 0.162045 0.986391
vt 0.162045 0.492361
vt 0.177483 0.986391
vt 0.177483 0.492361
vt 0.192922 0.986391
vt 0.192922 0.492361
vt 0.208360 0.492361
vt 0.223799 0.986391
vt 0.223799 0.492361
vt 0.239237 0.492361
vt 0.254675 0.986391
vt 0.254675 0.492361
vt 0.270114 0.492361
vt 0.285552 0.986391
vt 0.285552 0.492361
vt 0.300991 0.492361
vt 0.316429 0.986391
vt 0.316429 0.492361
vt 0.331868 0.492361
vt 0.347306 0.986391
vt 0.347306 0.492361
vt 0.362745 0.492361
vt 0.378183 0.986391
vt 0.378183 0.492361
vt 0.393621 0.986391
vt 0.393621 0.492361
vt 0.409060 0.986391
vt 0.409060 0.492361
vt 0.424498 0.492361
vt 0.439937 0.986391
vt 0.439937 0.492361
vt 0.455375 0.492361
vt 0.470813 0.986391
vt 0.470813 0.492361
vt 0.486252 0.492361
vt 0.501690 0.986391
vt 0.501690 0.492361
vt 0.517129 0.492361
vt 0.532567 0.986391
vt 0.532567 0.492361
vt 0.548006 0.986391
vt 0.548006 0.492361
vt 0.563444 0.986391
vt 0.563444 0.492361
vt 0.578882 0.492361
vt 0.594321 0.986391
vt 0.594321 0.492361
vt 0.609759 0.492361
vt 0.625198 0.986391
vt 0.625198 0.492361
vt 0.640636 0.492361
vt 0.656075 0.986391
vt 0.656075 0.492361
vt 0.671513 0.986391
vt 0.671513 0.492361
vt 0.686951 0.986391
vt 0.686951 0.492361
vt 0.702390 0.986391
vt 0.702390 0.492361
vt 0.717828 0.986391
vt 0.717828 0.492361
vt 0.733267 0.492361
vt 0.748705 0.986391
vt 0.748705 0.492361
vt 0.764143 0.492361
vt 0.779582 0.986391
vt 0.779582 0.492361
vt 0.795020 0.986391
vt 0.795020 0.492361
vt 0.810459 0.986391
vt 0.810459 0.492361
vt 0.825897 0.986391
vt 0.825897 0.492361
vt 0.841336 0.986391
vt 0.841336 0.492361
vt 0.856774 0.492361
vt 0.872212 0.986391
vt 0.872212 0.492361
vt 0.887651 0.986391
vt 0.887651 0.492361
vt 0.903089 0.986391
vt 0.903089 0.492361
vt 0.918528 0.492361
vt 0.933966 0.986391
vt 0.933966 0.492361
vt 0.949405 0.492361
vt 0.964843 0.986391
vt 0.964843 0.492361
vt 0.980124 0.492357
vt 0.964843 0.986386
vt 0.964843 0.492357
vt 0.980124 0.986386
vt 0.995404 0.492357
vt 0.995404 0.986386
vt 0.024923 0.986391
vt 0.011308 0.492361
vt 0.592292 0.971460
vt 0.545663 0.976052
vt 0.499034 0.980645
vt 0.452405 0.976052
vt 0.405777 0.971460
vt 0.360940 0.957858
vt 0.316102 0.944257
vt 0.274780 0.922170
vt 0.233458 0.900083
vt 0.197239 0.870359
vt 0.161019 0.840635
vt 0.131295 0.804416
vt 0.101571 0.768196
vt 0.079484 0.726874
vt 0.057396 0.685552
vt 0.043795 0.640715
vt 0.030194 0.595878
vt 0.025601 0.549249
vt 0.021009 0.502620
vt 0.025601 0.455991
vt 0.030194 0.409362
vt 0.043795 0.364524
vt 0.057396 0.319687
vt 0.079483 0.278365
vt 0.101570 0.237043
vt 0.131295 0.200824
vt 0.161019 0.164604
vt 0.197238 0.134880
vt 0.233457 0.105156
vt 0.274779 0.083069
vt 0.316101 0.060981
vt 0.405776 0.033779
vt 0.452405 0.029186
vt 0.499034 0.024594
vt 0.545663 0.029186
vt 0.592292 0.033779
vt 0.637129 0.047380
vt 0.681966 0.060981
vt 0.723289 0.083069
vt 0.764611 0.105156
vt 0.800830 0.134880
vt 0.837049 0.164604
vt 0.866773 0.200823
vt 0.896498 0.237043
vt 0.918585 0.278365
vt 0.940672 0.319687
vt 0.967874 0.409361
vt 0.972467 0.455990
vt 0.977060 0.502619
vt 0.972467 0.549248
vt 0.967874 0.595877
vt 0.954273 0.640715
vt 0.940672 0.685552
vt 0.918585 0.726874
vt 0.896498 0.768196
vt 0.866773 0.804415
vt 0.837049 0.840634
vt 0.800830 0.870358
vt 0.764611 0.900083
vt 0.723289 0.922170
vt 0.681966 0.944257
vt 0.498432 0.968689
vt 0.544004 0.964201
vt 0.589577 0.959712
vt 0.633398 0.946419
vt 0.677219 0.933126
vt 0.717605 0.911539
vt 0.757990 0.889953
vt 0.793389 0.860902
vt 0.828787 0.831851
vt 0.857838 0.796453
vt 0.886889 0.761055
vt 0.908476 0.720669
vt 0.930062 0.680283
vt 0.943355 0.636462
vt 0.956648 0.592641
vt 0.961137 0.547068
vt 0.965626 0.501496
vt 0.961137 0.455924
vt 0.956648 0.410351
vt 0.943355 0.366530
vt 0.930062 0.322709
vt 0.908476 0.282323
vt 0.886889 0.241937
vt 0.857838 0.206539
vt 0.828787 0.171141
vt 0.793389 0.142090
vt 0.757990 0.113039
vt 0.717605 0.091452
vt 0.677219 0.069866
vt 0.633398 0.056573
vt 0.589577 0.043280
vt 0.498432 0.034303
vt 0.452859 0.038791
vt 0.407287 0.043280
vt 0.363466 0.056573
vt 0.319645 0.069866
vt 0.279259 0.091453
vt 0.238873 0.113039
vt 0.203475 0.142090
vt 0.168076 0.171141
vt 0.139026 0.206539
vt 0.109975 0.241938
vt 0.088388 0.282323
vt 0.066802 0.322709
vt 0.053509 0.366530
vt 0.040216 0.410351
vt 0.031239 0.501496
vt 0.035727 0.547069
vt 0.040216 0.592641
vt 0.053509 0.636462
vt 0.066802 0.680283
vt 0.088389 0.720669
vt 0.109976 0.761055
vt 0.139026 0.796453
vt 0.168077 0.831852
vt 0.203476 0.860902
vt 0.238874 0.889953
vt 0.279260 0.911540
vt 0.319645 0.933126
vt 0.363467 0.946419
vt 0.407288 0.959712
vt 0.084853 0.986391
vt 0.115730 0.986391
vt 0.146607 0.986391
vt 0.208360 0.986391
vt 0.239237 0.986391
vt 0.270114 0.986391
vt 0.300991 0.986391
vt 0.331868 0.986391
vt 0.362745 0.986391
vt 0.424498 0.986391
vt 0.455375 0.986391
vt 0.486252 0.986391
vt 0.517129 0.986391
vt 0.578882 0.986391
vt 0.609759 0.986391
vt 0.640636 0.986391
vt 0.733267 0.986391
vt 0.764143 0.986391
vt 0.856774 0.986391
vt 0.918528 0.986391
vt 0.949405 0.986391
vt 0.011308 0.986391
s 0
f 100/1/1 84/2/1 68/3/1
f 95/4/2 111/5/2 127/6/2
f 64/7/3 127/8/3 63/9/3
f 126/10/4 63/9/4 125/11/4
f 62/12/5 125/11/5 61/13/5
f 123/14/6 62/12/6 61/13/6
f 60/15/7 123/14/7 59/16/7
f 121/17/8 60/15/8 59/16/8
f 58/18/9 121/17/9 57/19/9
f 119/20/10 58/18/10 57/19/10
f 56/21/11 119/20/11 55/22/11
f 118/23/12 55/22/12 117/24/12
f 54/25/13 117/24/13 53/26/13
f 115/27/14 54/25/14 53/26/14
f 52/28/15 115/27/15 51/29/15
f 113/30/16 52/28/16 51/29/16
f 50/31/17 113/30/17 49/32/17
f 111/33/18 50/31/18 49/32/18
f 48/34/19 111/33/19 47/35/19
f 109/36/20 48/34/20 47/35/20
f 46/37/21 109/36/21 45/38/21
f 107/39/22 46/37/22 45/38/22
f 44/40/23 107/39/23 43/41/23
f 105/42/24 44/40/24 43/41/24
f 42/43/25 105/42/25 41/44/25
f 104/45/26 41/44/26 103/46/26
f 40/47/27 103/46/27 39/48/27
f 101/49/28 40/47/28 39/48/28
f 38/50/29 101/49/29 37/51/29
f 99/52/30 38/50/30 37/51/30
f 36/53/31 99/52/31 35/54/31
f 97/55/32 36/53/32 35/54/32
f 34/56/33 97/55/33 33/57/33
f 95/58/34 34/56/34 33/57/34
f 32/59/35 95/58/35 31/60/35
f 94/61/36 31/60/36 93/62/36
f 30/63/37 93/62/37 29/64/37
f 91/65/38 30/63/38 29/64/38
f 28/66/39 91/65/39 27/67/39
f 89/68/40 28/66/40 27/67/40
f 26/69/41 89/68/41 25/70/41
f 87/71/42 26/69/42 25/70/42
f 24/72/43 87/71/43 23/73/43
f 86/74/44 23/73/44 85/75/44
f 22/76/45 85/75/45 21/77/45
f 84/78/46 21/77/46 83/79/46
f 20/80/47 83/79/47 19/81/47
f 81/82/48 20/80/48 19/81/48
f 18/83/49 81/82/49 17/84/49
f 79/85/50 18/83/50 17/84/50
f 16/86/51 79/85/51 15/87/51
f 78/88/52 15/87/52 77/89/52
f 14/90/53 77/89/53 13/91/53
f 76/92/54 13/91/54 75/93/54
f 12/94/55 75/93/55 11/95/55
f 73/96/56 12/94/56 11/95/56
f 10/97/57 73/96/57 9/98/57
f 72/99/58 9/98/58 71/100/58
f 8/101/59 71/100/59 7/102/59
f 69/103/60 8/101/60 7/102/60
f 6/104/61 69/103/61 5/105/61
f 67/106/62 6/104/62 5/105/62
f 4/107/63 67/106/63 3/108/63
f 65/109/64 4/110/64 3/111/64
f 66/112/65 1/113/65 2/114/65
f 128/115/66 1/116/66 127/8/66
f 68/3/67 4/117/67 66/118/67
f 66/118/68 2/119/68 128/120/68
f 128/120/69 64/121/69 126/122/69
f 126/122/70 62/123/70 124/124/70
f 124/124/71 60/125/71 122/126/71
f 122/126/72 58/127/72 120/128/72
f 120/128/73 56/129/73 118/130/73
f 118/130/74 54/131/74 116/132/74
f 116/132/75 52/133/75 114/134/75
f 114/134/76 50/135/76 112/136/76
f 112/136/77 48/137/77 110/138/77
f 110/138/78 46/139/78 108/140/78
f 108/140/79 44/141/79 106/142/79
f 106/142/80 42/143/80 104/144/80
f 104/144/81 40/145/81 102/146/81
f 102/146/82 38/147/82 100/1/82
f 100/1/83 36/148/83 98/149/83
f 98/149/84 34/150/84 96/151/84
f 96/151/85 32/152/85 94/153/85
f 94/153/86 30/154/86 92/155/86
f 92/155/87 28/156/87 90/157/87
f 90/157/88 26/158/88 88/159/88
f 88/159/89 24/160/89 86/161/89
f 86/161/90 22/162/90 84/2/90
f 84/2/91 20/163/91 82/164/91
f 82/164/92 18/165/92 80/166/92
f 80/166/93 16/167/93 78/168/93
f 78/168/94 14/169/94 76/170/94
f 76/170/95 12/171/95 74/172/95
f 74/172/96 10/173/96 72/174/96
f 72/174/97 8/175/97 70/176/97
f 70/176/98 6/177/98 68/3/98
f 68/3/1 66/118/1 128/120/1
f 128/120/1 126/122/1 124/124/1
f 124/124/1 122/126/1 120/128/1
f 120/128/1 118/130/1 116/132/1
f 116/132/1 114/134/1 112/136/1
f 112/136/1 110/138/1 108/140/1
f 108/140/1 106/142/1 104/144/1
f 104/144/1 102/146/1 100/1/1
f 100/1/1 98/149/1 96/151/1
f 96/151/1 94/153/1 92/155/1
f 92/155/1 90/157/1 88/159/1
f 88/159/1 86/161/1 84/2/1
f 84/2/1 82/164/1 80/166/1
f 80/166/1 78/168/1 76/170/1
f 76/170/1 74/172/1 72/174/1
f 72/174/1 70/176/1 68/3/1
f 68/3/1 128/120/1 124/124/1
f 124/124/1 120/128/1 116/132/1
f 116/132/1 112/136/1 108/140/1
f 108/140/1 104/144/1 100/1/1
f 100/1/1 96/151/1 92/155/1
f 92/155/1 88/159/1 84/2/1
f 84/2/1 80/166/1 76/170/1
f 76/170/1 72/174/1 68/3/1
f 68/3/1 124/124/1 116/132/1
f 116/132/1 108/140/1 100/1/1
f 100/1/1 92/155/1 84/2/1
f 84/2/1 76/170/1 68/3/1
f 68/3/1 116/132/1 100/1/1
f 127/6/99 1/178/99 65/179/99
f 65/179/100 3/180/100 67/181/100
f 67/181/101 5/182/101 69/183/101
f 69/183/102 7/184/102 71/185/102
f 71/185/103 9/186/103 73/187/103
f 73/187/104 11/188/104 75/189/104
f 75/189/105 13/190/105 77/191/105
f 77/191/106 15/192/106 79/193/106
f 79/193/107 17/194/107 81/195/107
f 81/195/108 19/196/108 83/197/108
f 83/197/109 21/198/109 85/199/109
f 85/199/110 23/200/110 87/201/110
f 87/201/111 25/202/111 89/203/111
f 89/203/112 27/204/112 91/205/112
f 91/205/113 29/206/113 93/207/113
f 93/207/114 31/208/114 95/4/114
f 95/4/115 33/209/115 97/210/115
f 97/210/116 35/211/116 99/212/116
f 99/212/117 37/213/117 101/214/117
f 101/214/118 39/215/118 103/216/118
f 103/216/119 41/217/119 105/218/119
f 105/218/120 43/219/120 107/220/120
f 107/220/121 45/221/121 109/222/121
f 109/222/122 47/223/122 111/5/122
f 111/5/123 49/224/123 113/225/123
f 113/225/124 51/226/124 115/227/124
f 115/227/125 53/228/125 117/229/125
f 117/229/126 55/230/126 119/231/126
f 119/231/127 57/232/127 121/233/127
f 121/233/128 59/234/128 123/235/128
f 123/235/129 61/236/129 125/237/129
f 125/237/130 63/238/130 127/6/130
f 127/6/2 65/179/2 67/181/2
f 67/181/2 69/183/2 71/185/2
f 71/185/2 73/187/2 75/189/2
f 75/189/2 77/191/2 79/193/2
f 79/193/2 81/195/2 83/197/2
f 83/197/2 85/199/2 87/201/2
f 87/201/2 89/203/2 91/205/2
f 91/205/2 93/207/2 95/4/2
f 95/4/2 97/210/2 99/212/2
f 99/212/2 101/214/2 103/216/2
f 103/216/2 105/218/2 107/220/2
f 107/220/2 109/222/2 111/5/2
f 111/5/2 113/225/2 115/227/2
f 115/227/2 117/229/2 119/231/2
f 119/231/2 121/233/2 123/235/2
f 123/235/2 125/237/2 127/6/2
f 127/6/2 67/181/2 71/185/2
f 71/185/2 75/189/2 79/193/2
f 79/193/2 83/197/2 87/201/2
f 87/201/2 91/205/2 95/4/2
f 95/4/2 99/212/2 103/216/2
f 103/216/2 107/220/2 111/5/2
f 111/5/2 115/227/2 119/231/2
f 119/231/2 123/235/2 127/6/2
f 127/6/2 71/185/2 79/193/2
f 79/193/2 87/201/2 95/4/2
f 95/4/2 103/216/2 111/5/2
f 111/5/2 119/231/2 127/6/2
f 127/6/2 79/193/2 95/4/2
f 64/7/3 128/115/3 127/8/3
f 126/10/4 64/7/4 63/9/4
f 62/12/5 126/10/5 125/11/5
f 123/14/6 124/239/6 62/12/6
f 60/15/7 124/239/7 123/14/7
f 121/17/8 122/240/8 60/15/8
f 58/18/9 122/240/9 121/17/9
f 119/20/10 120/241/10 58/18/10
f 56/21/11 120/241/11 119/20/11
f 118/23/12 56/21/12 55/22/12
f 54/25/13 118/23/13 117/24/13
f 115/27/14 116/242/14 54/25/14
f 52/28/15 116/242/15 115/27/15
f 113/30/16 114/243/16 52/28/16
f 50/31/17 114/243/17 113/30/17
f 111/33/18 112/244/18 50/31/18
f 48/34/19 112/244/19 111/33/19
f 109/36/20 110/245/20 48/34/20
f 46/37/21 110/245/21 109/36/21
f 107/39/131 108/246/131 46/37/131
f 44/40/23 108/246/23 107/39/23
f 105/42/24 106/247/24 44/40/24
f 42/43/25 106/247/25 105/42/25
f 104/45/26 42/43/26 41/44/26
f 40/47/27 104/45/27 103/46/27
f 101/49/28 102/248/28 40/47/28
f 38/50/29 102/248/29 101/49/29
f 99/52/30 100/249/30 38/50/30
f 36/53/31 100/249/31 99/52/31
f 97/55/32 98/250/32 36/53/32
f 34/56/33 98/250/33 97/55/33
f 95/58/34 96/251/34 34/56/34
f 32/59/35 96/251/35 95/58/35
f 94/61/36 32/59/36 31/60/36
f 30/63/37 94/61/37 93/62/37
f 91/65/38 92/252/38 30/63/38
f 28/66/39 92/252/39 91/65/39
f 89/68/40 90/253/40 28/66/40
f 26/69/41 90/253/41 89/68/41
f 87/71/42 88/254/42 26/69/42
f 24/72/43 88/254/43 87/71/43
f 86/74/44 24/72/44 23/73/44
f 22/76/132 86/74/132 85/75/132
f 84/78/46 22/76/46 21/77/46
f 20/80/47 84/78/47 83/79/47
f 81/82/48 82/255/48 20/80/48
f 18/83/49 82/255/49 81/82/49
f 79/85/50 80/256/50 18/83/50
f 16/86/51 80/256/51 79/85/51
f 78/88/52 16/86/52 15/87/52
f 14/90/53 78/88/53 77/89/53
f 76/92/133 14/90/133 13/91/133
f 12/94/55 76/92/55 75/93/55
f 73/96/56 74/257/56 12/94/56
f 10/97/57 74/257/57 73/96/57
f 72/99/58 10/97/58 9/98/58
f 8/101/59 72/99/59 71/100/59
f 69/103/60 70/258/60 8/101/60
f 6/104/61 70/258/61 69/103/61
f 67/106/62 68/259/62 6/104/62
f 4/107/63 68/259/63 67/106/63
f 65/109/64 66/112/64 4/110/64
f 66/112/65 65/109/65 1/113/65
f 128/115/66 2/260/66 1/116/66
