# Blender v3.0.0 OBJ File: 'black_piece.blend'
# www.blender.org
o Black_Piece_Cylinder
v -0.000000 -0.003719 -0.009000
v -0.000000 0.003719 -0.009000
v 0.001756 -0.003719 -0.008827
v 0.001756 0.003719 -0.008827
v 0.003444 -0.003719 -0.008315
v 0.003444 0.003719 -0.008315
v 0.005000 -0.003719 -0.007483
v 0.005000 0.003719 -0.007483
v 0.006364 -0.003719 -0.006364
v 0.006364 0.003719 -0.006364
v 0.007483 -0.003719 -0.005000
v 0.007483 0.003719 -0.005000
v 0.008315 -0.003719 -0.003444
v 0.008315 0.003719 -0.003444
v 0.008827 -0.003719 -0.001756
v 0.008827 0.003719 -0.001756
v 0.009000 -0.003719 0.000000
v 0.009000 0.003719 0.000000
v 0.008827 -0.003719 0.001756
v 0.008827 0.003719 0.001756
v 0.008315 -0.003719 0.003444
v 0.008315 0.003719 0.003444
v 0.007483 -0.003719 0.005000
v 0.007483 0.003719 0.005000
v 0.006364 -0.003719 0.006364
v 0.006364 0.003719 0.006364
v 0.005000 -0.003719 0.007483
v 0.005000 0.003719 0.007483
v 0.003444 -0.003719 0.008315
v 0.003444 0.003719 0.008315
v 0.001756 -0.003719 0.008827
v 0.001756 0.003719 0.008827
v -0.000000 -0.003719 0.009000
v -0.000000 0.003719 0.009000
v -0.001756 -0.003719 0.008827
v -0.001756 0.003719 0.008827
v -0.003444 -0.003719 0.008315
v -0.003444 0.003719 0.008315
v -0.005000 -0.003719 0.007483
v -0.005000 0.003719 0.007483
v -0.006364 -0.003719 0.006364
v -0.006364 0.003719 0.006364
v -0.007483 -0.003719 0.005000
v -0.007483 0.003719 0.005000
v -0.008315 -0.003719 0.003444
v -0.008315 0.003719 0.003444
v -0.008827 -0.003719 0.001756
v -0.008827 0.003719 0.001756
v -0.009000 -0.003719 -0.000000
v -0.009000 0.003719 -0.000000
v -0.008827 -0.003719 -0.001756
v -0.008827 0.003719 -0.001756
v -0.008315 -0.003719 -0.003444
v -0.008315 0.003719 -0.003444
v -0.007483 -0.003719 -0.005000
v -0.007483 0.003719 -0.005000
v -0.006364 -0.003719 -0.006364
v -0.006364 0.003719 -0.006364
v -0.005000 -0.003719 -0.007483
v -0.005000 0.003719 -0.007483
v -0.003444 -0.003719 -0.008315
v -0.003444 0.003719 -0.008315
v -0.001756 -0.003719 -0.008827
v -0.001756 0.003719 -0.008827
v 0.000883 -0.003739 -0.008961
v 0.000883 0.003739 -0.008961
v 0.002614 -0.003739 -0.008617
v 0.002614 0.003739 -0.008617
v 0.004245 -0.003739 -0.007941
v 0.004245 0.003739 -0.007941
v 0.005712 -0.003739 -0.006961
v 0.005712 0.003739 -0.006961
v 0.006961 -0.003739 -0.005712
v 0.006961 0.003739 -0.005712
v 0.007941 -0.003739 -0.004245
v 0.007941 0.003739 -0.004245
v 0.008617 -0.003739 -0.002614
v 0.008617 0.003739 -0.002614
v 0.008961 -0.003739 -0.000883
v 0.008961 0.003739 -0.000883
v 0.008961 -0.003739 0.000883
v 0.008961 0.003739 0.000883
v 0.008617 -0.003739 0.002614
v 0.008617 0.003739 0.002614
v 0.007941 -0.003739 0.004245
v 0.007941 0.003739 0.004245
v 0.006961 -0.003739 0.005712
v 0.006961 0.003739 0.005712
v 0.005712 -0.003739 0.006961
v 0.005712 0.003739 0.006961
v 0.004245 -0.003739 0.007941
v 0.004245 0.003739 0.007941
v 0.002614 -0.003739 0.008617
v 0.002614 0.003739 0.008617
v 0.000883 -0.003739 0.008961
v 0.000883 0.003739 0.008961
v -0.000883 -0.003739 0.008961
v -0.000883 0.003739 0.008961
v -0.002614 -0.003739 0.008617
v -0.002614 0.003739 0.008617
v -0.004245 -0.003739 0.007941
v -0.004245 0.003739 0.007941
v -0.005712 -0.003739 0.006961
v -0.005712 0.003739 0.006961
v -0.006961 -0.003739 0.005712
v -0.006961 0.003739 0.005712
v -0.007941 -0.003739 0.004245
v -0.007941 0.003739 0.004245
v -0.008617 -0.003739 0.002614
v -0.008617 0.003739 0.002614
v -0.008961 -0.003739 0.000883
v -0.008961 0.003739 0.000883
v -0.008961 -0.003739 -0.000883
v -0.008961 0.003739 -0.000883
v -0.008617 -0.003739 -0.002614
v -0.008617 0.003739 -0.002614
v -0.007941 -0.003739 -0.004245
v -0.007941 0.003739 -0.004245
v -0.006961 -0.003739 -0.005712
v -0.006961 0.003739 -0.005712
v -0.005712 -0.003739 -0.006961
v -0.005712 0.003739 -0.006961
v -0.004245 -0.003739 -0.007941
v -0.004245 0.003739 -0.007941
v -0.002614 -0.003739 -0.008617
v -0.002614 0.003739 -0.008617
v -0.000883 -0.003739 -0.008961
v -0.000883 0.003739 -0.008961
vt 0.981787 0.601513
vt 0.159165 0.161813
vt 0.848406 0.161812
vt 0.240726 0.901344
vt 0.942947 0.325044
vt 0.322786 0.068165
vt 0.033803 0.994444
vt 0.020113 0.497677
vt 0.033803 0.497677
vt 0.049327 0.994444
vt 0.049327 0.497677
vt 0.064851 0.994444
vt 0.064851 0.497677
vt 0.080375 0.994444
vt 0.080375 0.497677
vt 0.095899 0.994444
vt 0.095899 0.497677
vt 0.111423 0.994444
vt 0.111423 0.497677
vt 0.126947 0.994444
vt 0.126947 0.497677
vt 0.142471 0.994444
vt 0.142471 0.497677
vt 0.157995 0.994444
vt 0.157995 0.497677
vt 0.173519 0.994444
vt 0.173519 0.497677
vt 0.189043 0.994444
vt 0.189043 0.497677
vt 0.204567 0.994444
vt 0.204567 0.497677
vt 0.220091 0.994444
vt 0.220091 0.497677
vt 0.235615 0.497677
vt 0.251139 0.994444
vt 0.251139 0.497677
vt 0.266663 0.994444
vt 0.266663 0.497677
vt 0.282187 0.994444
vt 0.282187 0.497677
vt 0.297711 0.994444
vt 0.297711 0.497677
vt 0.313235 0.994444
vt 0.313235 0.497677
vt 0.328759 0.994444
vt 0.328759 0.497677
vt 0.344283 0.994444
vt 0.344283 0.497677
vt 0.359807 0.994444
vt 0.359807 0.497677
vt 0.375331 0.994444
vt 0.375331 0.497677
vt 0.390855 0.994444
vt 0.390855 0.497677
vt 0.406379 0.994444
vt 0.406379 0.497677
vt 0.421903 0.994444
vt 0.421903 0.497677
vt 0.437427 0.994444
vt 0.437427 0.497677
vt 0.452951 0.994444
vt 0.452951 0.497677
vt 0.468475 0.994444
vt 0.468475 0.497677
vt 0.483999 0.994444
vt 0.483999 0.497677
vt 0.499523 0.994444
vt 0.499523 0.497677
vt 0.515047 0.994444
vt 0.515047 0.497677
vt 0.530571 0.994444
vt 0.530571 0.497677
vt 0.546095 0.994444
vt 0.546095 0.497677
vt 0.561619 0.994444
vt 0.561619 0.497677
vt 0.577143 0.994444
vt 0.577143 0.497677
vt 0.592667 0.994444
vt 0.592667 0.497677
vt 0.608191 0.497677
vt 0.623715 0.994444
vt 0.623715 0.497677
vt 0.639238 0.994444
vt 0.639238 0.497677
vt 0.654762 0.994444
vt 0.654762 0.497677
vt 0.670286 0.994444
vt 0.670286 0.497677
vt 0.685811 0.994444
vt 0.685811 0.497677
vt 0.701334 0.994444
vt 0.701334 0.497677
vt 0.716858 0.994444
vt 0.716858 0.497677
vt 0.732382 0.994444
vt 0.732382 0.497677
vt 0.747906 0.994444
vt 0.747906 0.497677
vt 0.763430 0.994444
vt 0.763430 0.497677
vt 0.778954 0.994444
vt 0.778954 0.497677
vt 0.794478 0.994444
vt 0.794478 0.497677
vt 0.810002 0.994444
vt 0.810002 0.497677
vt 0.825526 0.497677
vt 0.841050 0.994444
vt 0.841050 0.497677
vt 0.856574 0.497677
vt 0.872098 0.994444
vt 0.872098 0.497677
vt 0.887622 0.994444
vt 0.887622 0.497677
vt 0.903146 0.994444
vt 0.903146 0.497677
vt 0.918670 0.994444
vt 0.918670 0.497677
vt 0.934194 0.994444
vt 0.934194 0.497677
vt 0.949718 0.994444
vt 0.949718 0.497677
vt 0.965242 0.994444
vt 0.965242 0.497677
vt 0.980608 0.994440
vt 0.980608 0.497673
vt 0.995973 0.497673
vt 0.995973 0.994440
vt 0.020113 0.994444
vt 0.006422 0.497677
vt 0.644579 0.970568
vt 0.598866 0.984435
vt 0.848406 0.851053
vt 0.551326 0.989117
vt 0.503785 0.993799
vt 0.456245 0.989117
vt 0.408706 0.984435
vt 0.362992 0.970568
vt 0.317279 0.956701
vt 0.275149 0.934182
vt 0.233019 0.911664
vt 0.128860 0.814127
vt 0.196092 0.881359
vt 0.159165 0.851053
vt 0.098555 0.777200
vt 0.076036 0.735070
vt 0.053517 0.692940
vt 0.039650 0.647227
vt 0.025783 0.601514
vt 0.076036 0.277796
vt 0.021101 0.553974
vt 0.016419 0.506433
vt 0.021101 0.458893
vt 0.025783 0.411353
vt 0.053517 0.319926
vt 0.039650 0.365639
vt 0.098554 0.235667
vt 0.128860 0.198740
vt 0.196092 0.131507
vt 0.362991 0.042298
vt 0.233019 0.101202
vt 0.317278 0.056165
vt 0.275148 0.078683
vt 0.408705 0.028431
vt 0.551325 0.023748
vt 0.456245 0.023748
vt 0.503785 0.019066
vt 0.598866 0.028431
vt 0.644579 0.042298
vt 0.690292 0.056165
vt 0.732422 0.078683
vt 0.774552 0.101202
vt 0.811479 0.131507
vt 0.878711 0.198739
vt 0.967920 0.365639
vt 0.909016 0.235666
vt 0.954053 0.319926
vt 0.931535 0.277796
vt 0.981787 0.411352
vt 0.991152 0.506433
vt 0.986470 0.458893
vt 0.986470 0.553973
vt 0.967920 0.647227
vt 0.954053 0.692940
vt 0.909016 0.777199
vt 0.931535 0.735070
vt 0.878711 0.814126
vt 0.811479 0.881358
vt 0.774552 0.911663
vt 0.690292 0.956701
vt 0.732422 0.934182
vt 0.458127 0.976776
vt 0.504427 0.981336
vt 0.641547 0.958711
vt 0.550727 0.976776
vt 0.597027 0.972216
vt 0.686068 0.945206
vt 0.727098 0.923274
vt 0.768129 0.901343
vt 0.974518 0.552985
vt 0.804093 0.871829
vt 0.840056 0.842314
vt 0.921016 0.729357
vt 0.869571 0.806351
vt 0.899085 0.770387
vt 0.942947 0.688326
vt 0.956453 0.643806
vt 0.969958 0.599285
vt 0.979079 0.506685
vt 0.956453 0.369565
vt 0.974518 0.460385
vt 0.969958 0.414085
vt 0.921016 0.284013
vt 0.899085 0.242983
vt 0.550727 0.036594
vt 0.686068 0.068164
vt 0.869571 0.207019
vt 0.840056 0.171056
vt 0.727098 0.090096
vt 0.804093 0.141541
vt 0.768129 0.112027
vt 0.641547 0.054659
vt 0.597027 0.041154
vt 0.504427 0.032034
vt 0.411827 0.041154
vt 0.458127 0.036594
vt 0.367306 0.054659
vt 0.281755 0.090096
vt 0.240725 0.112027
vt 0.034336 0.460385
vt 0.204761 0.141542
vt 0.168798 0.171056
vt 0.087837 0.284014
vt 0.139283 0.207020
vt 0.109769 0.242983
vt 0.065906 0.325044
vt 0.052401 0.369565
vt 0.038896 0.414085
vt 0.029775 0.506685
vt 0.038896 0.599285
vt 0.034336 0.552985
vt 0.052401 0.643806
vt 0.139284 0.806351
vt 0.065907 0.688327
vt 0.109769 0.770387
vt 0.087838 0.729357
vt 0.168798 0.842315
vt 0.204762 0.871829
vt 0.281756 0.923275
vt 0.322786 0.945206
vt 0.411828 0.972216
vt 0.367307 0.958711
vt 0.235615 0.994444
vt 0.608191 0.994444
vt 0.825526 0.994444
vt 0.856574 0.994444
vt 0.006422 0.994444
vn 0.0000 1.0000 0.0000
vn 0.0000 -1.0000 0.0000
vn -0.1517 0.0000 -0.9884
vn -0.2381 0.0000 -0.9712
vn -0.3416 0.0000 -0.9398
vn -0.4230 0.0000 -0.9061
vn -0.5184 0.0000 -0.8551
vn -0.5917 0.0000 -0.8062
vn -0.6753 0.0000 -0.7376
vn -0.7376 0.0000 -0.6753
vn -0.8062 0.0000 -0.5917
vn -0.8551 0.0000 -0.5184
vn -0.9061 0.0000 -0.4230
vn -0.9398 0.0000 -0.3416
vn -0.9712 0.0000 -0.2381
vn -0.9884 0.0000 -0.1517
vn -0.9990 0.0000 -0.0440
vn -0.9990 0.0000 0.0440
vn -0.9884 0.0000 0.1517
vn -0.9712 0.0000 0.2381
vn -0.9398 0.0000 0.3416
vn -0.9061 0.0000 0.4230
vn -0.8551 0.0000 0.5184
vn -0.8062 0.0000 0.5917
vn -0.7376 0.0000 0.6753
vn -0.6753 0.0000 0.7376
vn -0.5917 0.0000 0.8062
vn -0.5184 0.0000 0.8551
vn -0.4230 0.0000 0.9061
vn -0.3416 0.0000 0.9398
vn -0.2381 0.0000 0.9712
vn -0.1517 0.0000 0.9884
vn -0.0441 0.0000 0.9990
vn 0.0441 0.0000 0.9990
vn 0.1517 0.0000 0.9884
vn 0.2381 0.0000 0.9712
vn 0.3416 0.0000 0.9398
vn 0.4230 0.0000 0.9061
vn 0.5184 0.0000 0.8551
vn 0.5917 0.0000 0.8062
vn 0.6753 0.0000 0.7376
vn 0.7376 0.0000 0.6753
vn 0.8062 0.0000 0.5917
vn 0.8551 0.0000 0.5184
vn 0.9061 0.0000 0.4230
vn 0.9398 0.0000 0.3416
vn 0.9712 0.0000 0.2381
vn 0.9884 0.0000 0.1517
vn 0.9990 0.0000 0.0440
vn 0.9990 0.0000 -0.0440
vn 0.9884 0.0000 -0.1517
vn 0.9712 0.0000 -0.2381
vn 0.9398 0.0000 -0.3416
vn 0.9061 0.0000 -0.4230
vn 0.8551 0.0000 -0.5184
vn 0.8062 0.0000 -0.5917
vn 0.7376 0.0000 -0.6753
vn 0.6753 0.0000 -0.7376
vn 0.5917 0.0000 -0.8062
vn 0.5184 0.0000 -0.8551
vn 0.4230 0.0000 -0.9061
vn 0.3416 0.0000 -0.9398
vn 0.2381 0.0000 -0.9712
vn 0.1517 0.0000 -0.9884
vn 0.0440 0.0000 -0.9990
vn -0.0440 0.0000 -0.9990
vn -0.0425 0.9959 0.0796
vn -0.0376 0.9235 0.3816
vn 0.0376 0.9235 0.3816
vn 0.1113 0.9235 0.3670
vn -0.0454 0.9877 -0.1497
vn -0.0993 0.9877 -0.1210
vn 0.2433 0.9235 0.2964
vn 0.0572 0.9959 0.0698
vn 0.3382 0.9235 0.1808
vn 0.0424 0.9991 -0.0084
vn -0.0671 0.9977 0.0066
vn 0.3816 0.9236 0.0376
vn 0.0864 0.9959 -0.0262
vn -0.0134 0.9999 -0.0013
vn -0.1497 0.9877 0.0454
vn 0.3670 0.9236 -0.1113
vn 0.0517 0.9987 -0.0051
vn 0.2964 0.9235 -0.2433
vn 0.0425 0.9959 -0.0796
vn -0.0738 0.9877 0.1380
vn 0.1808 0.9235 -0.3382
vn -0.0153 0.9877 0.1557
vn 0.0376 0.9235 -0.3816
vn 0.0088 0.9959 -0.0898
vn -0.1113 0.9235 -0.3670
vn -0.1808 0.9235 -0.3382
vn -0.2433 0.9235 -0.2964
vn -0.0796 0.9959 -0.0425
vn 0.0036 1.0000 0.0068
vn 0.1380 0.9877 0.0738
vn -0.3382 0.9235 -0.1808
vn 0.1557 0.9877 0.0153
vn -0.3816 0.9235 -0.0376
vn -0.3816 0.9235 0.0376
vn 0.0310 0.9995 -0.0030
vn -0.3670 0.9235 0.1113
vn -0.3382 0.9235 0.1808
vn -0.2964 0.9235 0.2433
vn 0.0738 0.9877 -0.1380
vn -0.1808 0.9235 0.3382
vn -0.0030 0.9995 -0.0310
vn 0.0088 0.9998 0.0164
vn -0.0039 1.0000 0.0032
vn 0.0039 0.9999 0.0129
vn 0.0032 1.0000 0.0039
vn -0.0178 0.9998 -0.0054
vn 0.0000 1.0000 -0.0088
vn 0.0153 -0.9877 -0.1557
vn -0.0376 -0.9236 0.3816
vn -0.0088 -0.9959 0.0898
vn -0.1808 -0.9235 0.3382
vn -0.0458 -0.9987 0.0245
vn 0.0024 -1.0000 -0.0044
vn 0.1210 -0.9877 -0.0993
vn -0.2964 -0.9235 0.2433
vn -0.0698 -0.9959 0.0572
vn -0.3670 -0.9235 0.1113
vn 0.0595 -0.9977 -0.0318
vn 0.1557 -0.9877 0.0153
vn -0.3816 -0.9235 -0.0376
vn -0.0898 -0.9959 -0.0088
vn -0.3382 -0.9235 -0.1808
vn 0.0112 -0.9998 0.0136
vn -0.0572 -0.9959 -0.0698
vn 0.0044 -1.0000 0.0024
vn 0.0993 -0.9877 0.1210
vn -0.2433 -0.9235 -0.2964
vn -0.1113 -0.9235 -0.3670
vn 0.0454 -0.9877 0.1497
vn -0.0153 -0.9877 0.1557
vn 0.0376 -0.9235 -0.3816
vn 0.1113 -0.9235 -0.3670
vn -0.0090 -0.9995 0.0298
vn 0.1808 -0.9235 -0.3382
vn 0.0458 -0.9987 -0.0245
vn -0.0024 -1.0000 0.0044
vn -0.1210 -0.9877 0.0993
vn 0.2964 -0.9235 -0.2433
vn 0.0698 -0.9959 -0.0572
vn 0.3670 -0.9236 -0.1113
vn -0.1497 -0.9877 0.0454
vn -0.1557 -0.9877 -0.0153
vn 0.3816 -0.9236 0.0376
vn 0.0796 -0.9959 0.0425
vn -0.0298 -0.9995 -0.0090
vn -0.1380 -0.9877 -0.0738
vn 0.3382 -0.9235 0.1808
vn 0.0497 -0.9987 0.0151
vn 0.2433 -0.9235 0.2964
vn 0.0262 -0.9959 0.0864
vn -0.0454 -0.9877 -0.1497
vn 0.1113 -0.9235 0.3670
vn 0.0018 -0.9998 0.0185
vn 0.0129 -0.9999 -0.0039
vn -0.0081 -1.0000 0.0034
vn -0.0034 -1.0000 -0.0081
vn -0.0274 -0.9995 0.0147
vn -0.0032 -1.0000 -0.0039
vn 0.0041 -1.0000 -0.0004
s off
f 16/1/1 42/2/1 26/3/1
f 59/4/2 21/5/2 37/6/2
f 64/7/3 127/8/3 63/9/3
f 126/10/4 63/9/4 125/11/4
f 62/12/5 125/11/5 61/13/5
f 124/14/6 61/13/6 123/15/6
f 60/16/7 123/15/7 59/17/7
f 122/18/8 59/17/8 121/19/8
f 58/20/9 121/19/9 57/21/9
f 120/22/10 57/21/10 119/23/10
f 56/24/11 119/23/11 55/25/11
f 118/26/12 55/25/12 117/27/12
f 54/28/13 117/27/13 53/29/13
f 116/30/14 53/29/14 115/31/14
f 52/32/15 115/31/15 51/33/15
f 113/34/16 52/32/16 51/33/16
f 50/35/17 113/34/17 49/36/17
f 112/37/18 49/36/18 111/38/18
f 48/39/19 111/38/19 47/40/19
f 110/41/20 47/40/20 109/42/20
f 46/43/21 109/42/21 45/44/21
f 108/45/22 45/44/22 107/46/22
f 44/47/23 107/46/23 43/48/23
f 106/49/24 43/48/24 105/50/24
f 42/51/25 105/50/25 41/52/25
f 104/53/26 41/52/26 103/54/26
f 40/55/27 103/54/27 39/56/27
f 102/57/28 39/56/28 101/58/28
f 38/59/29 101/58/29 37/60/29
f 100/61/30 37/60/30 99/62/30
f 36/63/31 99/62/31 35/64/31
f 98/65/32 35/64/32 97/66/32
f 34/67/33 97/66/33 33/68/33
f 96/69/34 33/68/34 95/70/34
f 32/71/35 95/70/35 31/72/35
f 94/73/36 31/72/36 93/74/36
f 30/75/37 93/74/37 29/76/37
f 92/77/38 29/76/38 91/78/38
f 28/79/39 91/78/39 27/80/39
f 89/81/40 28/79/40 27/80/40
f 26/82/41 89/81/41 25/83/41
f 88/84/42 25/83/42 87/85/42
f 24/86/43 87/85/43 23/87/43
f 86/88/44 23/87/44 85/89/44
f 22/90/45 85/89/45 21/91/45
f 84/92/46 21/91/46 83/93/46
f 20/94/47 83/93/47 19/95/47
f 82/96/48 19/95/48 81/97/48
f 18/98/49 81/97/49 17/99/49
f 80/100/50 17/99/50 79/101/50
f 16/102/51 79/101/51 15/103/51
f 78/104/52 15/103/52 77/105/52
f 14/106/53 77/105/53 13/107/53
f 75/108/54 14/106/54 13/107/54
f 12/109/55 75/108/55 11/110/55
f 73/111/56 12/109/56 11/110/56
f 10/112/57 73/111/57 9/113/57
f 72/114/58 9/113/58 71/115/58
f 8/116/59 71/115/59 7/117/59
f 70/118/60 7/117/60 69/119/60
f 6/120/61 69/119/61 5/121/61
f 68/122/62 5/121/62 67/123/62
f 4/124/63 67/123/63 3/125/63
f 66/126/64 3/125/64 65/127/64
f 66/126/65 1/128/65 2/129/65
f 128/130/66 1/131/66 127/8/66
f 68/132/67 4/133/67 10/134/67
f 4/133/68 66/135/68 2/136/68
f 2/136/69 128/137/69 64/138/69
f 4/133/1 42/2/1 16/1/1
f 64/138/70 126/139/70 62/140/70
f 124/141/71 64/138/71 62/140/71
f 124/141/72 60/142/72 120/143/72
f 60/142/73 122/144/73 58/145/73
f 120/143/72 60/142/72 58/145/72
f 120/143/74 56/146/74 124/141/74
f 56/146/75 118/147/75 54/148/75
f 42/2/76 54/148/76 116/149/76
f 56/146/1 54/148/1 42/2/1
f 116/149/77 52/150/77 108/151/77
f 52/150/78 114/152/78 50/153/78
f 108/151/79 50/153/79 112/154/79
f 52/150/80 50/153/80 108/151/80
f 112/154/81 48/155/81 46/156/81
f 48/155/82 110/157/82 46/156/82
f 46/156/81 108/151/81 112/154/81
f 108/151/83 44/158/83 116/149/83
f 44/158/84 106/159/84 42/2/84
f 42/2/85 104/160/85 100/161/85
f 104/160/86 40/162/86 38/163/86
f 40/162/87 102/164/87 38/163/87
f 38/163/86 100/161/86 104/160/86
f 100/161/88 36/165/88 96/166/88
f 36/165/89 98/167/89 34/168/89
f 96/166/88 36/165/88 34/168/88
f 96/166/90 32/169/90 100/161/90
f 32/169/91 94/170/91 30/171/91
f 30/171/92 92/172/92 28/173/92
f 28/173/93 90/174/93 26/3/93
f 26/3/94 88/175/94 84/176/94
f 28/173/95 100/161/95 30/171/95
f 88/175/96 24/177/96 22/178/96
f 24/177/97 86/179/97 22/178/97
f 22/178/96 84/176/96 88/175/96
f 84/176/98 20/180/98 18/181/98
f 20/180/99 82/182/99 18/181/99
f 18/181/100 80/183/100 16/1/100
f 84/176/101 18/181/101 16/1/101
f 16/1/102 78/184/102 14/185/102
f 10/134/1 14/185/1 12/186/1
f 14/185/103 76/187/103 12/186/103
f 16/1/1 14/185/1 10/134/1
f 12/186/104 74/188/104 10/134/104
f 10/134/67 72/189/67 68/132/67
f 72/189/105 8/190/105 6/191/105
f 8/190/106 70/192/106 6/191/106
f 6/191/105 68/132/105 72/189/105
f 4/133/1 2/136/1 42/2/1
f 124/141/107 2/136/107 64/138/107
f 124/141/108 56/146/108 2/136/108
f 44/158/109 42/2/109 116/149/109
f 32/169/110 30/171/110 100/161/110
f 28/173/111 26/3/111 100/161/111
f 84/176/112 16/1/112 26/3/112
f 2/136/1 56/146/1 42/2/1
f 42/2/113 100/161/113 26/3/113
f 16/1/1 10/134/1 4/133/1
f 127/193/114 1/194/114 67/195/114
f 1/194/115 65/196/115 3/197/115
f 67/195/114 1/194/114 3/197/114
f 67/195/116 5/198/116 127/193/116
f 5/198/117 69/199/117 7/200/117
f 79/201/118 7/200/118 71/202/118
f 5/198/119 7/200/119 79/201/119
f 71/202/120 9/203/120 75/204/120
f 9/203/121 73/205/121 11/206/121
f 75/204/120 9/203/120 11/206/120
f 75/204/122 13/207/122 71/202/122
f 13/207/123 77/208/123 15/209/123
f 15/209/124 79/201/124 71/202/124
f 79/201/125 17/210/125 83/211/125
f 17/210/126 81/212/126 19/213/126
f 83/211/125 17/210/125 19/213/125
f 83/211/127 21/5/127 79/201/127
f 21/5/128 85/214/128 23/215/128
f 95/216/129 23/215/129 29/217/129
f 23/215/130 87/218/130 29/217/130
f 21/5/131 23/215/131 95/216/131
f 87/218/132 25/219/132 91/220/132
f 25/219/133 89/221/133 27/222/133
f 91/220/132 25/219/132 27/222/132
f 91/220/130 29/217/130 87/218/130
f 29/217/134 93/223/134 31/224/134
f 95/216/135 29/217/135 31/224/135
f 95/216/136 33/225/136 35/226/136
f 33/225/137 97/227/137 35/226/137
f 35/226/138 99/228/138 37/6/138
f 95/216/139 35/226/139 37/6/139
f 37/6/140 101/229/140 39/230/140
f 111/231/141 39/230/141 103/232/141
f 37/6/142 39/230/142 111/231/142
f 103/232/143 41/233/143 107/234/143
f 41/233/144 105/235/144 43/236/144
f 107/234/143 41/233/143 43/236/143
f 107/234/145 45/237/145 103/232/145
f 45/237/146 109/238/146 47/239/146
f 111/231/147 45/237/147 47/239/147
f 111/231/148 49/240/148 51/241/148
f 49/240/149 113/242/149 51/241/149
f 51/241/150 115/243/150 119/244/150
f 111/231/151 51/241/151 119/244/151
f 115/243/152 53/245/152 55/246/152
f 53/245/153 117/247/153 55/246/153
f 55/246/152 119/244/152 115/243/152
f 119/244/154 57/248/154 111/231/154
f 57/248/155 121/249/155 59/4/155
f 59/4/156 123/250/156 127/193/156
f 123/250/157 61/251/157 63/252/157
f 61/251/158 125/253/158 63/252/158
f 63/252/157 127/193/157 123/250/157
f 127/193/159 5/198/159 59/4/159
f 13/207/160 15/209/160 71/202/160
f 79/201/161 21/5/161 5/198/161
f 95/216/162 37/6/162 21/5/162
f 45/237/163 111/231/163 103/232/163
f 57/248/164 59/4/164 111/231/164
f 111/231/165 59/4/165 37/6/165
f 5/198/2 21/5/2 59/4/2
f 64/7/3 128/130/3 127/8/3
f 126/10/4 64/7/4 63/9/4
f 62/12/5 126/10/5 125/11/5
f 124/14/6 62/12/6 61/13/6
f 60/16/7 124/14/7 123/15/7
f 122/18/8 60/16/8 59/17/8
f 58/20/9 122/18/9 121/19/9
f 120/22/10 58/20/10 57/21/10
f 56/24/11 120/22/11 119/23/11
f 118/26/12 56/24/12 55/25/12
f 54/28/13 118/26/13 117/27/13
f 116/30/14 54/28/14 53/29/14
f 52/32/15 116/30/15 115/31/15
f 113/34/16 114/254/16 52/32/16
f 50/35/17 114/254/17 113/34/17
f 112/37/18 50/35/18 49/36/18
f 48/39/19 112/37/19 111/38/19
f 110/41/20 48/39/20 47/40/20
f 46/43/21 110/41/21 109/42/21
f 108/45/22 46/43/22 45/44/22
f 44/47/23 108/45/23 107/46/23
f 106/49/24 44/47/24 43/48/24
f 42/51/25 106/49/25 105/50/25
f 104/53/26 42/51/26 41/52/26
f 40/55/27 104/53/27 103/54/27
f 102/57/28 40/55/28 39/56/28
f 38/59/29 102/57/29 101/58/29
f 100/61/30 38/59/30 37/60/30
f 36/63/31 100/61/31 99/62/31
f 98/65/32 36/63/32 35/64/32
f 34/67/33 98/65/33 97/66/33
f 96/69/34 34/67/34 33/68/34
f 32/71/35 96/69/35 95/70/35
f 94/73/36 32/71/36 31/72/36
f 30/75/37 94/73/37 93/74/37
f 92/77/38 30/75/38 29/76/38
f 28/79/39 92/77/39 91/78/39
f 89/81/40 90/255/40 28/79/40
f 26/82/41 90/255/41 89/81/41
f 88/84/42 26/82/42 25/83/42
f 24/86/43 88/84/43 87/85/43
f 86/88/44 24/86/44 23/87/44
f 22/90/45 86/88/45 85/89/45
f 84/92/46 22/90/46 21/91/46
f 20/94/47 84/92/47 83/93/47
f 82/96/48 20/94/48 19/95/48
f 18/98/49 82/96/49 81/97/49
f 80/100/50 18/98/50 17/99/50
f 16/102/51 80/100/51 79/101/51
f 78/104/52 16/102/52 15/103/52
f 14/106/53 78/104/53 77/105/53
f 75/108/54 76/256/54 14/106/54
f 12/109/55 76/256/55 75/108/55
f 73/111/56 74/257/56 12/109/56
f 10/112/57 74/257/57 73/111/57
f 72/114/58 10/112/58 9/113/58
f 8/116/59 72/114/59 71/115/59
f 70/118/60 8/116/60 7/117/60
f 6/120/61 70/118/61 69/119/61
f 68/122/62 6/120/62 5/121/62
f 4/124/63 68/122/63 67/123/63
f 66/126/64 4/124/64 3/125/64
f 66/126/65 65/127/65 1/128/65
f 128/130/66 2/258/66 1/131/66
